<?xml version="1.0" encoding="UTF-8"?>
<svg id="Layer_1" data-name="Layer 1" xmlns="http://www.w3.org/2000/svg" viewBox="0 0 1064.23 207.39">
  <defs>
    <style>
      .cls-1 {
        fill: #fcee21;
        stroke-width: 0px;
      }
    </style>
  </defs>
  <path class="cls-1" d="M690.8,157.01c-.42.67-.83,1.36-1.2,2.07-3.01,5.81.45,12.33,6.79,12.99,2.65.27,4.89-.86,7-2.25,1.75-1.15,3.37-2.42,4.89-3.78-5.77-3.13-11.59-6.15-17.48-9.03Z"/>
  <path class="cls-1" d="M763.48,36.41c4.18,3.57,8.17,7.34,11.97,11.29,2.47-.7,4.95-1.39,7.44-2.06-6.04-3.99-12.39-7.56-18.94-10.85-.52-.26-1.17-.93-1.69.08.03.82.73,1.12,1.22,1.54Z"/>
  <path class="cls-1" d="M807.3,66.86c-6.86-8.04-14.74-14.7-23.29-20.48-2.59.69-5.17,1.4-7.75,2.13,1.29,1.36,2.56,2.74,3.81,4.14,7.87,8.88,14.92,18.28,19.56,29.16,3.92-3.21,7.96-6.26,12.11-9.17-1.35-1.97-2.82-3.9-4.43-5.79ZM787.35,54.34c-.64,0-.64-1,0-1s.64,1,0,1Z"/>
  <path class="cls-1" d="M750.91,55.54c-6.31-.62-12.41-1.22-18.51-1.82-1.21-.12-1.83.79-2.54,1.5-5.15,5.14-10.28,10.29-15.43,15.43,11.88-5.7,24.07-10.67,36.47-15.11Z"/>
  <path class="cls-1" d="M745.89,77.35c-1.75-1.74-1.59-2.69.08-4.29,5.32-5.12,10.48-10.4,16.47-16.39-3.14-.31-6.19-.61-9.2-.9-.2.07-.4.14-.6.21-7.03,2.51-14.05,5.1-20.94,7.98-6.57,2.74-13.05,5.72-19.44,8.85-3.8,3.79-7.6,7.59-11.42,11.36-1.47,1.45-1.61,2.28-.05,3.77,4.53,4.32,8.98,8.74,13.28,13.29,1.67,1.76,2.62,1.33,4.05-.18,3.7-3.87,7.59-7.55,11.29-11.41,1.43-1.49,2.32-1.89,4.03-.16,8.13,8.22,16.3,16.41,24.48,24.58,2.23-.49,4.45-1.01,6.66-1.57,4.33-1.09,8.62-2.31,12.89-3.62-10.5-10.53-21.01-21.04-31.57-31.51ZM741.14,68.41c.64,0,.64,1,0,1s-.64-1,0-1ZM714.84,94.94c-.64,0-.64-1,0-1s.64,1,0,1ZM711.77,86.96c-.55.33-1.06-.53-.5-.86,2.28-1.37,4.64-2.6,7.05-3.74,8.57-4.05,17.63-6.87,26.52-10.1.61-.22.87.75.27.96-2.48.9-4.98,1.77-7.47,2.64-8.85,3.1-17.77,6.26-25.86,11.09Z"/>
  <path class="cls-1" d="M809.49,140.93c-1.32-1.28-1.49-2.06-.23-3.56,1.97-2.34,3.79-4.86,5.32-7.5,10.47-18,9.51-38.57-2.31-56.4-4.19,2.96-8.29,6.05-12.25,9.3.71,1.74,1.37,3.51,1.95,5.32,1.23,3.84,1.97,7.6,2.18,11.28.48-.19.96-.38,1.43-.57.6-.24.86.73.27.96-.55.22-1.1.43-1.66.65.26,8.16-2.11,15.93-7.64,23.24-1.42,1.87-2.25,2.14-4.07.31-4.73-4.78-9.49-9.54-14.24-14.31-6.43,1.99-12.93,3.75-19.5,5.23,6.36,6.36,12.73,12.71,19.11,19.04,1.84,1.82,1.65,2.51-.77,3.23-14.6,4.38-27.88,2.22-39.64-7.79-1.76-1.5-3.36-4.2-5.73-.68-.26.38-.74.29-1.22.15-4.61-1.25-8.55,1.5-12.82,2.27-1.75.32-3.26,2.07-3.59,3.86-.6,3.27-2.91,4.6-5.43,5.98-1.49.82-2.91,1.79-4.29,2.79-2.54,1.84-5.01,3.74-7.28,5.84,3.03,4.84,7.08,9.06,10.25,13.8.36.54-.51,1.04-.86.5-3.14-4.69-7.08-8.86-10.1-13.61-1.86,1.8-3.58,3.74-5.04,5.91,3.53,1.73,7.04,3.49,10.53,5.31,2.4,1.25,4.79,2.53,7.17,3.82,4.28-4.04,7.71-8.85,10.79-13.94,1.37-2.27,2.57-4.43,5.6-4.88,1.43-.21,2.75-1.34,3.4-2.68,1.12-2.31,2.01-2.08,3.86-.54,17.84,14.87,37.42,17.5,58.57,7.9,1.99-.9,3.18-.74,4.7.83,2.51,2.59,5.05,5.15,7.6,7.7,3.41-.96,6.82-1.95,10.2-3.02,2.91-.91,5.81-1.87,8.7-2.83-4.29-4.34-8.59-8.66-12.96-12.92ZM810.84,109.26c.64,0,.64,1,0,1s-.64-1,0-1ZM706.92,151.88c-.64,0-.64-1,0-1s.64,1,0,1Z"/>
  <path class="cls-1" d="M823.24,154.64c-3.54,1.19-7.09,2.35-10.66,3.45.1.17.09.37-.11.53-1.86,1.46-3.72,2.93-5.53,4.46,1.96,1.95,3.92,3.91,5.88,5.87,2.3,2.3,4.96,3.66,8.28,2.99,3.4-.68,5.71-2.68,6.78-6.03,1.13-3.54.03-6.53-2.45-9.05-.73-.74-1.47-1.48-2.2-2.22Z"/>
  <path class="cls-1" d="M804.37,160.52c.62.62,1.24,1.24,1.86,1.86,1.53-1.29,3.1-2.54,4.67-3.78-2.17.66-4.35,1.3-6.53,1.92Z"/>
  <path class="cls-1" d="M27.28,17.19c-.38,0-.86-.07-1.46-.23-.6-.22-1.16-.3-1.69-.22-.45-.15.6.15,3.15.9-3.3,1.72-5.13,3.52-5.5,5.39-.3,1.87-.3,5.17,0,9.89.3,4.94.3,8.28,0,10-2.02.38-5.13.86-9.32,1.46-4.27.6-7.38,1.05-9.33,1.35,2.4.08,5.51-.19,9.33-.79,4.94-.75,8.05-1.2,9.32-1.35v7.75c-2.17.22-5.73.67-10.67,1.35-4.57.6-8.2,1.01-10.9,1.24v-6.85c-.15-.37-.04-.6.34-.67l.79-.22c.07-.15-.11-.22-.56-.22-.45.08-.64,0-.56-.22.15-2.47.11-6.44-.11-11.91-.15-5.17-.11-8.99.11-11.46.52-5.54,3.11-10.41,7.75-14.61,12.51-1.12,18.95-1.69,19.32-1.69v11.12ZM24.69,59.32c-7.34-.52-15.5-1.31-24.49-2.36v-2.36c14.75-1.95,21.87-2.88,21.35-2.81.22.45.34,1.24.34,2.36-.08,1.42-.11,2.29-.11,2.58.3.3.82.64,1.57,1.01.82.38,1.39.67,1.69.9l-.45.22.11.45ZM48.06,73.25c-12.96,2.4-19.59,3.63-19.89,3.71-3.6-1.72-8.28-4.08-14.04-7.08-6.89-3.59-11.54-5.99-13.93-7.19v-5.17c2.4.22,7.08.67,14.04,1.35,5.84.6,10.6,1.01,14.27,1.24.6.53,1.72,1.2,3.37,2.02,1.65.75,2.81,1.39,3.48,1.91h-.22v.22c-.08.45.19.64.79.56v-.11l.45.11-.11-.34c2.02.9,4.76,2.25,8.2,4.04,3.82,1.95,6.55,3.3,8.2,4.04-3.07,3.22-8.05,7.12-14.94,11.68v-2.25c-3.15-1.72-6.22-3.29-9.21-4.72.67-.22,3.93-.86,9.77-1.91,5.39-.97,8.65-1.61,9.77-1.91l.56.11.34-.34c.9-.22,1.38-.3,1.46-.22-.97.15-1.61.19-1.91.11l-.45.11ZM.2,115.16h21.57v20.22c-3.45.45-5.54.64-6.29.56.75.3,1.8.34,3.15.11,1.72-.22,2.77-.3,3.15-.22v8.09c-6.67.97-13.86,1.61-21.57,1.91v-8.31c.37-.07,1.16-.15,2.36-.22,1.05,0,1.8-.07,2.25-.22-.45-.22-1.16-.26-2.13-.11-1.2.15-2.02.19-2.47.11v-21.91ZM1.1,152.57c-.6-1.12-.9-3-.9-5.62,1.12-.15,4.12-.41,8.99-.79,3.67-.37,6.63-.67,8.88-.9.97-.07,1.35.11,1.12.56,1.27-.37,2.13-.56,2.58-.56-.52,3.82,1.31,6.59,5.5,8.31v17.64c-10.94-.67-18.8-4.98-23.59-12.92h.22v-.22c1.05.3,2.92.86,5.62,1.69,2.32.75,4.23,1.27,5.73,1.57v-.45l-.22-.11-.11-.11c.52-.07.52-.26,0-.56-.52-.22-.71-.11-.56.34l-.45-.11.11.34c-1.05-.22-2.73-.67-5.06-1.35-2.17-.67-3.93-1.16-5.28-1.46l-.11-.22-.22.22c-1.05-1.27-1.8-2.96-2.25-5.06l.45.11.34-.34c1.8-.37,2.77-.75,2.92-1.12-1.95.75-3.03,1.09-3.26,1.01l-.45.11ZM27.28,5.17c-1.65.22-4.65.52-8.99.9-3.9.38-6.85.71-8.88,1.01-.38-.15-.38-.34,0-.56.07-.07.22-.19.45-.34.22-.07.37-.11.45-.11C14.81,2.4,20.46.38,27.28,0v5.17ZM12.56,137.06c-.52-.07-.79,0-.79.22.07.08.37.15.9.22.45.08.71,0,.79-.22-.15-.15-.45-.22-.9-.22ZM12.9,142.91c-.45-.07-.75.04-.9.34.45.08.75-.04.9-.34ZM13.23,35.5c.52,0,.79-.15.79-.45-.75-.3-1.24-.37-1.46-.22-.08.38.15.6.67.67ZM13.68,42.35c-.08-.3-.34-.45-.79-.45,0,.83.19,1.24.56,1.24.3-.15.37-.41.23-.79ZM17.95,15.5h.45c.3-.07.37-.22.22-.45-.67-.07-1.05.08-1.12.45h.45ZM19.86,163.02c1.8-.15,2.55-.07,2.25.22-1.8.15-2.55.08-2.25-.22ZM57.39,25.95l-.11-.34c.82-.15,1.01-.22.56-.22-.45-.82-2.25-1.76-5.39-2.81-.67-.22-5.21-1.31-13.59-3.26-4.42-.97-6.55-1.46-6.4-1.46-.22-2.17-.3-5.09-.22-8.76V0c3.15,0,6.4,1.16,9.77,3.48,0-.3.79.49,2.36,2.36-.08.38.6-.15,2.02-1.57,6.22,3.22,10.22,8.09,12.02,14.6.07.3-.04.41-.34.34-.38-.07-.64-.04-.79.11.07.3.37.64.9,1.01.52.3.82.6.9.9v5.84c-1.65-.82-2.32-1.12-2.02-.9l.34-.22ZM40.54,169.76c-1.87.67-4.64,1.24-8.31,1.69v-17.64c.3-.37.82-.75,1.57-1.12.97-.37,1.61-.71,1.91-1.01,1.42-1.35,2.1-4.01,2.02-7.98,13.03-.97,19.85-1.46,20.45-1.46-.08.45-.26.75-.56.9.07.15.22.11.45-.11.3-.22.64-.26,1.01-.11.97,12.81-4.91,21.61-17.64,26.4l-.11-.34-.45.11v-.22c-.23,0-.71-.15-1.46-.45-.52-.15-.9-.15-1.12,0,.9.37,1.65.6,2.25.67l-.11.34.11.34ZM33.68,167.17c.22-.07.67.08,1.35.45.52.22.94.22,1.24,0-1.95-.15-2.81-.3-2.58-.45ZM56.49,25.95c.45.08-.71-.19-3.48-.79.82.45,2.85,1.16,6.07,2.13v11.35c-.15,0-1.61.22-4.38.67.6-.07-.08-.04-2.02.11-.83,0-1.31.26-1.46.79-.23-.52.75-.52,2.92,0l-.11.23.45.11c-.15.22.04.34.56.34.45,0,.64-.11.56-.34l.45-.23-.22-.34c.6-.22,1.69-.3,3.26-.22v4.72c-2.92.53-4.2.67-3.82.45-.45.08-.9-.04-1.35-.34-.38-.22-.67-.26-.9-.11,0-.07.37.34,1.12,1.24l-.45.11.45.11c.22-.15-1.24.3-4.38,1.35.45.38,1.35.49,2.7.34,1.72-.22,2.85-.26,3.37-.11l-.11.22.45.11c-.22.6-.34.75-.34.45.22.22.49.3.79.22.3-.07.45-.3.45-.67l-.22-.11-.11-.22c.15-.15.94-.22,2.36-.22v2.58h-4.04l.11-.45-.45-.22v-.45h-.56v.45l-.45.22.11.45h-12.36l.11-.45-.45-.22c.52-.22,1.57-.41,3.15-.56,1.5-.15,2.47-.41,2.92-.79-1.05-.07-2.58.08-4.61.45-2.4.38-4.01.6-4.83.67v-7.08c1.27-.07,2.99-.3,5.17-.67l-5.17.45c-1.5-14.98-2.1-22.21-1.8-21.68l.45-.11-.11-.34c3.15.83,4.57,1.2,4.27,1.12h-.22v.22c-.08.45.19.64.79.56v-.56h.34v-.22c9.66,2.77,14.94,4.42,15.84,4.94l-.45.11-.34.22ZM59.07,118.19c-.23,1.12-.23,3.15,0,6.07.3,2.7.3,4.61,0,5.73-.15.53-.45.83-.9.9,0,.08.15.11.45.11.3.08.45.15.45.22v9.66c-.67.15-1.8.22-3.37.22-1.57.08-2.66.15-3.26.23l.11-.34-.45.11v-.34h-.56v.34l-.45-.11.11.34c-.3,0-.79-.04-1.46-.11-.6-.07-1.16-.11-1.69-.11.45-.07.45.23,0,.9h-1.12l.11-.34-.45-.34.34-.79c-.45-.07-.79.04-1.01.34-.23.22-.08.38.45.45l-.22.34.22.34c-.38.08-3.26.38-8.65.9v-2.36c1.72.15,2.77.22,3.15.22-.67-.3-1.72-.45-3.15-.45v-11.68c.07-.22,2.1-1.57,6.07-4.04,3.22-2.02,5.2-3.37,5.95-4.04-1.12.53-3.11,1.72-5.95,3.6-2.77,1.87-4.79,3.11-6.07,3.71v-22.58c.37-.07.94-.04,1.69.11.52.08.9.04,1.12-.11.15.22-.79.15-2.81-.23v-7.53c.07-.3.52-.15,1.35.45,1.2.9,1.8,1.31,1.8,1.24,0-.3-.41-.71-1.24-1.24-1.12-.6-1.76-1.01-1.91-1.24.22-1.42.19-3.41-.11-5.95-.38-2.4-.34-4.16.11-5.28-.08.08,2.51-1.98,7.75-6.18,2.77-2.32,5.47-4.34,8.09-6.07.67.22,1.57.64,2.7,1.24,1.2.67,2.13,1.12,2.81,1.35-.3,3.75-.3,9.81,0,18.2.3,8.02.3,13.97,0,17.86-.08.9-.3,1.42-.67,1.57-.08.45.15.64.67.56-2.17,1.87-3.82,2.96-4.94,3.26l-.34-.34-.56.11v-.22h-.79v.45h.79l.22.34.34-.11v.22c.07.22.41.3,1.01.22.6-.07.75-.3.45-.67.45.38.97.53,1.57.45.67,0,1.12.08,1.35.22l.34.34.56-.11ZM39.75,108.53h.56v-.45h-.56v.45ZM50.42,93.47c.37,0-.6-.37-2.92-1.12-.97.15-2.17,0-3.6-.45-1.65-.6-2.85-.94-3.6-1.01.15.67,1.01,1.16,2.58,1.46,1.72.3,2.7.75,2.92,1.35.82-.3,1.83-.22,3.03.22,1.35.45,2.25.64,2.7.56-.08.22-.26-.04-.56-.79h.23v-.67c-.3,0-.49.08-.56.22l-.45-.11.22.34ZM42.89,135.6c.3.08.56,0,.79-.22.22-.3.15-.45-.22-.45-.38.45-.75.64-1.12.56l-.34.34c.07-.07-.15,0-.67.22-.3.15-.26.26.11.34.37-.37.75-.52,1.12-.45l.34-.34ZM41.77,108.53h.56v-.45h-.56v.45ZM47.5,151.44c-1.95.83-3.67,2.17-5.17,4.04-.08.08,1.65-1.27,5.17-4.04ZM43.12,108.53h.67v-.45h-.67v.45ZM45.37,41.01c.37,0,.52-.15.45-.45-.75,0-1.24.15-1.46.45-.15.08.19.08,1.01,0ZM46.04,90.66c0,.3.3.6.9.9.07-.67-.22-.97-.9-.9ZM53.01,106.17v-.67c-.75-.07-1.46-.34-2.13-.79-.75-.45-.9-.75-.45-.9-.22,0-1.2-.22-2.92-.67,0,.52.52,1.01,1.57,1.46.9.45,1.12,1.05.67,1.8.9-.3,1.8-.3,2.7,0l-.23.22.45-.11c.15.22.34.45.56.67.3.3.49.53.56.67.67-.07,1.35.11,2.02.56.67.45,1.16.64,1.46.56-.6-.15-1.2-.64-1.8-1.46-.6-.75-1.35-1.12-2.25-1.12l.22-.34-.45.11ZM50.53,132.68c1.12-.52,2.13-.79,3.03-.79-.08-.45,0-.79.23-1.01-3.6.08-5.69.9-6.29,2.47.9,0,1.91-.22,3.03-.67ZM47.5,140.1h.56v-.45h-.56v.45ZM48.85,111.11c-.15-.07-.3-.07-.45,0,.37-.52.64-.45.79.22-.08,0-.19-.07-.34-.22ZM49.75,42.13c-.38.45-.64.38-.79-.22.22,0,.3.08.22.22h.56ZM49.75,137.06c.45,0,.75-.15.9-.45-.83.08-1.2.22-1.12.45l-.45-.11.11.34h-.22v.45h.56v-.45l.45.11-.23-.34ZM50.08,106.95c-.38.6-.38.9,0,.9.37-.52.37-.82,0-.9ZM50.65,92.12h.56v-.34h-.56v.34ZM51.21,111.34c-.23.22-.08.38.45.45.52,0,.79-.11.79-.34l-1.24-.11ZM53.57,114.93l.9.67c.15-.6-.15-.82-.9-.67ZM55.03,145.6c.52-.45.9-.79,1.12-1.01.52,0-.26.64-2.36,1.91.22-.23.64-.52,1.24-.9ZM54.69,120.77h.34v-.45h-.56v.45l-.22.22.22.11h-.34c-.08.67.22.97.9.9,0-.15-.08-.3-.23-.45-.08-.15-.11-.3-.11-.45l.11-.11-.11-.22ZM55.14,95.05c-.15-.07-.3-.11-.45-.11.37-.45.67-.37.9.22-.15,0-.3-.04-.45-.11ZM55.03,135.83c-.08.3.11.49.56.56,0-.3-.19-.49-.56-.56ZM55.03,90.89h.56v-.45h-.56v.45ZM56.71,42.35c-.67-.07-1.05.08-1.12.45.67,0,1.05-.15,1.12-.45ZM55.81,105.72c0,.3.19.49.56.56.37.08.6-.04.67-.34l-1.24-.22ZM55.81,131.22c.97-.22,1.46-.3,1.46-.22-.97.3-1.46.38-1.46.22Z"/>
  <path class="cls-1" d="M83,73.7c-.08-.07-.15-.11-.22-.11,3.29-5.02,9.17-9.14,17.64-12.36,1.95-.52,3.71-.86,5.28-1.01v17.3c-3.15,1.27-5.06,4.23-5.73,8.88v10.11c-.23.08-.41.15-.56.22-.15.08-.22.22-.22.45-2.85,1.12-5.47,2.44-7.86,3.93h-1.35c-1.2.67-2.68,1.12-4.44,1.35-1.76.23-3.28.64-4.55,1.24l.34.22-1.57.22v-20c0-.75.04-1.46.11-2.13,4.19-3,8.35-5.99,12.47-8.99l-12.47,8.99c.3-2.92,1.24-5.62,2.81-8.09.07,0,.19-.07.34-.22ZM85.25,105.72c1.5-.9,3.09-1.8,4.77-2.7,1.69-.9,3.54-1.53,5.56-1.91,1.57-.3,3.03-.64,4.38-1.01v20.78l-1.12-.22c.37.08.75.19,1.12.34v.45c-6.52.45-13.26.64-20.22.56v-13.82c1.35-.75,2.66-1.46,3.93-2.13.52-.15,1.05-.26,1.57-.34ZM79.74,106.95v-2.81c.52-.07,1.05-.15,1.57-.22l-.11.34c1.12-.07,2.15-.28,3.09-.62.94-.34,1.85-.47,2.75-.39-2.47,1.12-4.91,2.36-7.3,3.71ZM79.74,122.79c4.19-.15,8.35-.11,12.47.11-4.04.67-8.2,1.35-12.47,2.02v-2.13ZM80.31,150.32c.37.08.52-.04.45-.34h-.45v.11c-.38-1.5-.56-2.81-.56-3.93v-19.55c1.2-.22,2.36-.41,3.48-.56,5.47-1.05,11.05-2.06,16.74-3.03v20.56c.52,4.57,2.43,7.49,5.73,8.76v17.75c-10.56-.75-18.76-6.52-24.6-17.3-.3-.82-.56-1.65-.79-2.47ZM81.88,149.42c-.3-.22-.6-.19-.9.11.3.3.6.26.9-.11ZM82.1,148.86c.45-.22.62-.39.51-.5s-.28.06-.51.5ZM83.45,121.33l.45-.22c-.15.08-.3.15-.45.22ZM86.04,145.6c-.9.75-1.76,1.5-2.58,2.25l2.58-2.25c.67-.6,1.35-1.2,2.02-1.8l-2.02,1.8ZM84.8,120.55c-.15.15.06.19.62.11.56-.07.8-.3.73-.67-.45-.07-.69.02-.73.28-.04.26-.24.36-.62.28ZM86.37,119.31v-.45h-.45v.45h.45ZM88.17,119.31c.97-.3,1.91-.64,2.81-1.01l-2.81,1.01ZM90.42,115.38c-.3-.22-.54-.26-.73-.11-.19.15.06.19.73.11ZM91.88,140.55l-2.25,1.91c.82-.6,1.57-1.24,2.25-1.91ZM91.32,111.79c.22.38.6.41,1.12.11-.22-.3-.6-.34-1.12-.11ZM93.79,69.54c.07-.37-.08-.58-.45-.62-.38-.04-.52.17-.45.62h.9ZM92.89,117.4c.22,0,.49-.07.79-.22l-.79.22ZM95.02,71.23l-1.01.67c.37-.22.71-.45,1.01-.67l1.12-.79-.11.34c.52-.22,1.12-.41,1.8-.56l-.11-.34h.45-.45l.34-.22c.07-.22.15-.45.22-.67-.97.22-1.8.64-2.47,1.24l.34.22c-.45.22-.83.49-1.12.79ZM95.25,137.74c-.15.08-.26.15-.34.22l.34-.22ZM95.59,71.68c.15.38.45.45.9.22-.22-.37-.52-.45-.9-.22ZM96.48,116.17c-.3.08-.6.15-.9.22l.9-.22ZM96.48,120.32c-.6-.22-.9-.22-.9,0s.3.22.9,0ZM99.97,99.2c-1.2.3-2.44.49-3.71.56,1.2-.52,2.43-1.08,3.71-1.68v1.12ZM98.06,78.87c-.3-.22-.54-.26-.73-.11-.19.15.06.19.73.11ZM98.51,76.06v-.34h-.67v.34h.67ZM99.07,114.93l-1.12.45c.45-.07.82-.22,1.12-.45ZM99.18,78.64c-.15.15-.36.22-.62.22s-.36.11-.28.34c.3.08.6.15.9.22v-.79ZM99.41,68.08c.97-.75,1.95-1.46,2.92-2.13l-2.92,2.13ZM100.98,69.88v-1.12c-.38.3-.67.67-.9,1.12h.9ZM101.99,69.32l1.12-.34c-.38,0-.75.11-1.12.34ZM103.23,70.22c.15-.15.07-.37-.22-.67-.15.08-.22.26-.22.56.3-.07.45-.04.45.11ZM120.86,86.17c-.52-4.72-2.7-7.68-6.52-8.88v-17.08c10.48.75,18.65,6.4,24.49,16.96-2.32,1.27-4.76,2.43-7.3,3.48-.15.38-.47.64-.96.79-.49.15-.84.38-1.07.67-.52,0-.97.08-1.35.22-.75.97-2.02,1.54-3.82,1.68-.22.6-.71,1.03-1.46,1.29-.75.26-1.42.54-2.02.84ZM120.98,141.33v-19.44c6.44-.15,12.88-.3,19.32-.45v24.72c0,9.96-6.89,17.6-20.67,22.92-1.95.52-3.71.86-5.28,1.01v-17.53c2.7-.9,4.76-2.92,6.18-6.07.3-2.02.45-3.75.45-5.17ZM120.3,78.08v1.12h.9c.3-.6,0-.97-.9-1.12ZM120.98,88.64v-1.01c6.07-3.07,12.17-6.1,18.31-9.1.67,2.17,1.01,4.04,1.01,5.62v5.73c-2.4.6-4.79,1.16-7.19,1.68-2.02.53-4.04,1.09-6.07,1.69-1.57.22-3.22.52-4.94.9-.38.08-.75.15-1.12.22v-5.73ZM120.98,95.38c1.2-.37,2.55-.6,4.04-.67,4.94-1.42,10.04-2.73,15.28-3.93v22.25c-1.27.22-2.62.49-4.04.79-1.35.45-2.77.94-4.27,1.46h-1.57c-1.65.45-3.3.94-4.94,1.46-1.27.15-2.62.34-4.04.56-.15,0-.3.04-.45.11v-1.57l5.06-3.82c-1.72,1.05-3.41,2.21-5.06,3.48v-20.11ZM137.83,115.27c.82-.22,1.65-.49,2.47-.79v6.85l-19.32.56v-3.03c.67-.22,1.35-.37,2.02-.45.9-.07,1.8-.15,2.7-.22,1.2-.37,2.4-.75,3.6-1.12.75-.07,1.5-.15,2.25-.22,1.65-.52,3.22-1.05,4.72-1.57h1.57ZM124.12,124.03c-.22-.67-.52-.67-.9,0h.9ZM126.14,124.26c-.3-.22-.52-.26-.67-.11-.15.15.07.19.67.11ZM128.84,108.98v.79c.45-.15.67-.41.67-.79h-.67ZM135.92,103.81l-.67.45c.3-.15.52-.3.67-.45l.67-.67c-.3.15-.52.38-.67.67ZM137.83,101.45v.79c.37-.22.67-.41.9-.56-.15-.22-.45-.3-.9-.22Z"/>
  <path class="cls-1" d="M158.84,78.31c-.9-.07-1.72-.15-2.47-.22-.97-5.77-2.02-11.8-3.15-18.09l.9-.34h19.32c.15,0,.34.43.56,1.29.22.86.51,2.15.84,3.88.34,1.72.71,3.9,1.12,6.52.41,2.62.84,5.66,1.29,9.1l-7.75-.79.34-.22c-3.75-.37-7.41-.75-11.01-1.12ZM175.46,85.83l.34-.11c-.3.15-.64.3-1.01.45l1.01-.45-.11.22c.82.15,1.65.3,2.47.45.3,2.62.67,5.39,1.12,8.31-.22,0-.45.04-.67.11-3.45.52-6.89.97-10.34,1.35-1.95.38-3.6.6-4.94.67-1.05-.45-2.1-.86-3.15-1.24l-.22.22c-.15-.15-.34-.26-.56-.34-.82-4.87-1.68-9.96-2.58-15.28.52,0,.82.19.9.56,2.4.38,4.61.94,6.63,1.69,2.02.75,4.23,1.31,6.63,1.68,1.42.6,2.92,1.16,4.49,1.69ZM159.85,97.52c-.15-.67-.3-1.35-.45-2.02l.56.34-.45-.11c.15.45.43.75.84.9.41.15.73.38.96.67-.52.08-1.01.15-1.46.23ZM168.27,101.22c1.12.45,1.5.94,1.12,1.46.97-.07,1.67.06,2.08.39.41.34.92.58,1.52.73l.22-.34.22-.22c-.15-.52-.6-.79-1.35-.79-1.05-.6-2.1-1.35-3.15-2.25-1.35-.6-2.7-1.35-4.04-2.25,4.79-.9,9.62-1.69,14.49-2.36.52,3.9,1.05,8.13,1.57,12.7l-7.75-4.83c2.54,1.65,5.13,3.26,7.75,4.83.07.08.11.15.11.22l-8.43,57.97c-.67-2.4-2.06-9.27-4.16-20.62-2.1-11.35-4.94-27.13-8.54-47.35.97,0,1.95-.11,2.92-.34.97.45,2.1,1.12,3.37,2.02h.9c.37.3.75.64,1.12,1.01ZM169.62,79.99l-.11-.34c2.62.38,5.21.64,7.75.79.22,1.35.45,2.77.67,4.27-1.87-.52-3.6-1.05-5.17-1.57-1.05-.15-2.1-.34-3.15-.56-1.42-.52-2.92-1.08-4.49-1.69-.9-.15-1.8-.34-2.7-.56-.83-.15-1.57-.45-2.25-.9,3.22.45,6.37.64,9.44.56ZM181.08,167.51l7.98-54.38,5.73,3.48-.34.22c3.52,2.4,7.19,4.72,11.01,6.97l-7.86,43.7h-16.51ZM198.94,92.8c1.57.3,2.92.67,4.04,1.12,1.2.22,2.17.45,2.92.67,1.27.38,2.62.71,4.04,1.01.15,0,.34.04.56.11l-4.83,26.51c-1.35-.37-2.55-.86-3.59-1.46-.15-.3-.3-.56-.45-.79-.75-.37-1.42-.67-2.02-.9-1.65-.9-2.85-1.8-3.59-2.7h-.9l-.34.22c-1.87-1.2-3.78-2.36-5.73-3.48l2.81-19.44c.9-.15,1.83-.26,2.81-.34.37-.07.82-.07,1.35,0,1.05-.3,2.02-.49,2.92-.56ZM191.98,92.46l.34-1.69c1.42.15,2.81.49,4.16,1.01-.75.45-1.57.6-2.47.45-.67.08-1.35.15-2.02.22ZM192.54,89.09l.9-6.4c6.44.3,12.81.86,19.1,1.68l-1.01,5.39c-1.2.15-2.4.34-3.6.56-2.4.52-4.72.83-6.97.9-1.57-.15-3.15-.52-4.72-1.12-1.27-.37-2.51-.71-3.71-1.01ZM205.69,82.58c-4.04-.22-8.05-.6-12.02-1.12l3.15-21.79h19.21c.52,0,.79.22.79.67l-4.04,23.03c-2.32-.37-4.68-.64-7.08-.79ZM200.07,153.58c-.45-.07-.67.08-.67.45.37-.07.6-.22.67-.45ZM202.09,106.62v-.34h-.67v.34h.67ZM210.74,94.37c-2.25-.67-4.53-1.35-6.85-2.02,2.47-.6,4.94-1.05,7.41-1.35l-.56,3.37ZM205.69,105.94c-.83-.3-1.35-.19-1.57.34.82.15,1.35.04,1.57-.34ZM205.69,122.46l-.11.34h-.11c0-.15.07-.26.22-.34ZM210.18,92.57h-.45v.34h.45v-.34Z"/>
  <path class="cls-1" d="M231.08,39.66v-4.61c.07-.07.37-.11.9-.11h19.1c.6,0,.9.04.9.11v1.35c-3.37,2.1-6.85,4.12-10.45,6.07-.15.45-.47.75-.96.9-.49.15-.84.45-1.07.9-.52,0-.97.08-1.35.22-.75,1.12-2.02,1.8-3.82,2.02-.22.75-.67,1.27-1.35,1.57-.67.3-1.31.6-1.91.9v-8.31h.11c.22-.45.19-.79-.11-1.01ZM231.08,52.69v-1.8c6.89-4.27,13.86-8.5,20.9-12.7v14.49c0,.08-.3.11-.9.11h-19.1c-.6,0-.9-.04-.9-.11ZM236.02,79.65c-1.27.15-2.62.34-4.04.56-.08,0-.19.04-.34.11v-1.57l4.94-3.82c-1.72,1.05-3.37,2.17-4.94,3.37v-17.41c.07-.45.37-.67.9-.67h19.1c.6,0,.9.22.9.67-.3.23-.38.53-.22.9h.22v13.48c-1.65.67-3.52,1.12-5.62,1.35-1.42.52-2.88,1.05-4.38,1.57h-1.57c-1.65.38-3.3.86-4.94,1.46ZM248.49,78.19c1.27-.45,2.62-.94,4.04-1.46v7.53l-20.9.56v-3.03c.67-.23,1.31-.41,1.91-.56.9,0,1.8-.04,2.7-.11,1.2-.37,2.4-.75,3.59-1.12.75-.07,1.5-.15,2.25-.22,1.65-.52,3.26-1.05,4.83-1.57.45-.07.97-.07,1.57,0ZM243.44,148.86c.75.08,1.2-.15,1.35-.67l-.22-.34-.22-.22c-.6.15-1.11.39-1.52.73-.41.34-1.11.43-2.08.28.37.6,0,1.12-1.12,1.57-.38.3-.75.6-1.12.9h-.9c-1.27.9-2.4,1.57-3.37,2.02-.83-.22-1.69-.34-2.58-.34v-67.97c6.97-.15,13.93-.34,20.9-.56v30.22l-1.69.22c.52.22,1.08.22,1.69,0v28.42c-2.7,1.57-5.36,3.15-7.98,4.72l7.98-4.72v12.81c-5.47-.75-10.9-1.65-16.29-2.7,1.35-.82,2.7-1.53,4.04-2.13,1.05-.9,2.1-1.65,3.15-2.25ZM232.65,154.03c-.22.3-.56.53-1.01.67v-.79c.37,0,.71.04,1.01.11ZM246.92,165.26c-1.65.45-3.18,1.01-4.61,1.68-2.55.38-4.91.97-7.08,1.8h-2.7c-.6,0-.9-.26-.9-.79v-12.25c1.05-.45,2.06-.9,3.03-1.35,1.35.15,3,.41,4.94.79,3.44.3,6.93.71,10.45,1.24.75.15,1.57.3,2.47.45v6.97c-1.72.6-3.52,1.01-5.39,1.24l.11.34-1.01-.45c.3.15.63.3,1.01.45l-.34-.11ZM234.67,86.96c-.22-.67-.52-.67-.9,0h.9ZM236.69,87.18c-.3-.23-.53-.26-.67-.11-.15.15.07.19.67.11ZM239.39,71.9v.67c.45-.07.67-.3.67-.67h-.67ZM252.53,167.96c0,.52-.3.79-.9.79h-11.57c.3-.15.6-.26.9-.34,1.05-.15,2.1-.34,3.15-.56,1.65-.52,3.48-1.08,5.5-1.69.9-.3,1.87-.6,2.92-.9v2.7ZM246.47,66.62l-.56.56c.23-.15.41-.34.56-.56l.79-.67c-.38.22-.64.45-.79.67ZM248.49,64.38v.67c.3-.15.6-.34.9-.56-.22-.15-.53-.19-.9-.11Z"/>
  <path class="cls-1" d="M271.75,148.52c-.22.38-.52.45-.9.22.37-.37.67-.45.9-.22ZM272.48,147.57c.11.11-.06.24-.51.39.22-.37.39-.51.51-.39ZM273.32,146.95c.82-.75,1.68-1.5,2.58-2.25l-2.58,2.25ZM275.34,77.74c-.3,1.65-.45,3.37-.45,5.17v19.21c1.95-.3,3.6-.79,4.94-1.46h1.35c2.4-1.42,5.02-2.7,7.86-3.82,0-.22.07-.41.22-.56,1.65-.45,3-1.12,4.04-2.02.45-.15.86-.34,1.24-.56v-33.03l-.34.11c-10.79,3-17.08,8.65-18.87,16.96l6.85-4.83c-2.25,1.65-4.53,3.26-6.85,4.83ZM294.55,119.99v-21.01h-.34c-1.27.15-2.55.34-3.82.56-1.5.45-3.15.83-4.94,1.12-2.02.38-3.86,1.01-5.5,1.91-1.65.9-3.26,1.76-4.83,2.58-.08,0-.15.04-.22.11v14.72c.22-.07.37-.21.45-.39.07-.19.3-.24.67-.17-.08.45-.45.67-1.12.67v1.24c5.47,0,10.86-.22,16.18-.67l.11-.23c-.9,0-1.72-.11-2.47-.34l2.47.34.11-.34c1.05.45,2.13.41,3.26-.11ZM274.89,103.81c.67-.37,1.35-.71,2.02-1.01-.67-.07-1.35,0-2.02.22v.79ZM274.89,125.15v19.44c0,5.39,1.16,9.51,3.48,12.36,4.49,5.02,9.89,8.31,16.18,9.89v-44.94h-1.46c-6.14.83-12.21,1.91-18.2,3.26ZM274.89,123.47c2.4-.37,4.79-.75,7.19-1.12-2.4-.22-4.79-.3-7.19-.22v1.35ZM275.79,118.64v-.34h.45v.34h-.45ZM277.93,143.02c-.67.6-1.35,1.16-2.02,1.69l2.02-1.69ZM280.85,117.63c-.9.45-1.84.83-2.81,1.12l2.81-1.12ZM279.55,114.71c.19-.15.43-.11.73.11-.67.08-.92.04-.73-.11ZM279.5,141.67l2.25-2.02c-.67.75-1.42,1.42-2.25,2.02ZM282.31,111.45c-.52.22-.9.15-1.12-.22.52-.22.9-.15,1.12.22ZM282.76,69.32c-.08-.37.07-.54.45-.51.37.04.52.21.45.51h-.9ZM283.54,116.62c-.3.08-.56.15-.79.22l.79-.22ZM286.01,70.33l-.34-.22c.67-.6,1.5-1.05,2.47-1.35-.08.3-.15.56-.23.79l-.34.22.45-.11c-.15.08-.3.11-.45.11l.11.34c-.67.08-1.27.26-1.8.56l.11-.34-1.12.67c-.3.3-.64.53-1.01.67l1.01-.67c.3-.3.67-.52,1.12-.67ZM284.78,137.29c.07-.15.19-.26.34-.34l-.34.34ZM286.35,71.68c-.45.22-.75.19-.9-.11.37-.23.67-.19.9.11ZM285.45,115.83c.3-.15.6-.22.9-.22l-.9.22ZM285.45,119.71c0-.19.3-.17.9.06-.6.15-.9.13-.9-.06ZM294.55,95.27c-2.77,1.42-5.58,2.81-8.43,4.16,2.92-.37,5.73-.94,8.43-1.68v-2.47ZM287.19,78.53c.19-.15.43-.11.73.11-.67.08-.92.04-.73-.11ZM287.7,75.95v-.45h.67v.45h-.67ZM288.94,114.37c-.3.22-.67.34-1.12.34l1.12-.34ZM289.05,79.21c-.3-.07-.6-.15-.9-.23-.08-.22.04-.34.34-.34s.49-.07.56-.22v.79ZM292.19,65.83l.11-.11c-1.05.75-2.06,1.46-3.03,2.13l2.92-2.02ZM289.95,69.66c.22-.45.52-.79.9-1.01v1.01h-.9ZM291.86,69.21c.37-.22.75-.37,1.12-.45l-1.12.45ZM291.86,131.33c.37-.37.75-.67,1.12-.9l-1.12.9ZM292.64,69.88c0-.3.07-.49.22-.56.37.38.45.64.22.79,0-.15-.15-.22-.45-.22ZM292.87,108.53h.67c.15.45,0,.67-.45.67-.15-.15-.22-.37-.22-.67ZM294.44,85.05h-1.12c0-.37.15-.64.45-.79.22.23.45.49.67.79ZM298.03,126.17c-.75.67-1.54,1.31-2.36,1.91l2.36-1.91ZM298.03,126.17c1.35-1.42,2.88-2.73,4.61-3.93l-4.61,3.93ZM300.28,67.86c-.67.22-1.12.19-1.35-.11.67-.15,1.12-.11,1.35.11ZM301.97,75.38c-.67.08-1.39.08-2.13,0h2.13ZM300.73,77.18h.9c.15.52,0,.83-.45.9-.38-.15-.53-.45-.45-.9ZM305,63.7l-.34.22h.45-.45l.11.34c-.67.08-1.2.22-1.57.45v.9c.07.08.15.15.22.22-.08,0-.15.04-.22.11v9.66h.45c3,0,5.17,1.09,6.52,3.26v-1.01c.75.15,1.08.45,1.01.9.22.08.34.22.34.45h-1.12c0-.07.04-.15.11-.23h-.22c.15.23.26.45.34.67.67,1.42,1.2,4.12,1.57,8.09,3.74-1.57,7.23-3.33,10.45-5.28.97-.15,1.74-.47,2.3-.96.56-.49,1.37-.77,2.42-.84.45-.6,1.14-1.03,2.08-1.29.94-.26,1.55-.73,1.85-1.4l-.22-2.58c-3.37-6.37-8.05-10.79-14.04-13.26-.45.22-.79.15-1.01-.22h.45c-2.17-.9-4.57-1.53-7.19-1.91-.97.67-1.95,1.35-2.92,2.02l2.92-2.02c-1.87-.22-3.82-.34-5.84-.34h-.22v4.38c.52-.52,1.2-.9,2.02-1.12,0,.3-.08.56-.22.79ZM303.2,64.94h.45c.15.15.23.34.23.56h-.67v-.56ZM316.23,91.67c-1.27.38-2.55.79-3.82,1.24.15,2.4.22,5.13.22,8.2v4.38l-9.44,1.8v2.47h.22-.22v4.04c.07,0,.15.04.22.11-.08.08-.15.11-.22.11v1.12c1.65-.07,3.29-.19,4.94-.34l.11-.22c-.83,0-1.65-.11-2.47-.34l2.47.34.11-.34c1.27.45,2.62.34,4.04-.34,1.65-.22,3.22-.41,4.72-.56,2.54-.67,4.98-1.16,7.3-1.46.07-.3.3-.52.67-.67l.22.22c1.8-1.8,3.86-3.41,6.18-4.83v-18.09c-2.4.3-4.53.83-6.4,1.57-1.95.08-3.78.49-5.5,1.24-1.05.15-2.17.26-3.37.34ZM319.38,116.28c-2.92-.22-5.99-.26-9.21-.11-2.32.22-4.64.56-6.97,1.01v6.52l9.77-1.69,2.13-1.69c1.35-1.42,2.88-2.73,4.61-3.93l-.34-.11ZM303.2,154.48c1.05-.37,1.98-.9,2.81-1.57,4.42-1.8,8.46-3.82,12.13-6.07.97-.15,1.76-.45,2.36-.9.6-.45,1.38-.75,2.36-.9.52-.6,1.25-1.01,2.19-1.24.94-.22,1.59-.71,1.97-1.46,1.72-.15,2.99-.71,3.82-1.69.22,0,.45-.04.67-.11v-6.4c0-.37-.3-.6-.9-.67h-17.64c-.45,0-.71.23-.79.67v11.46c0,3.37-2.21,5.28-6.63,5.73h-2.36v3.15ZM308.71,156.16c1.35-.3,2.7-.67,4.04-1.12,1.57-.22,3.07-.45,4.49-.67,2.54-.67,5.06-1.35,7.53-2.02,1.65-.37,3.29-.67,4.94-.9.52-.15,1.01-.3,1.46-.45.22-.82.34-1.72.34-2.7v-6.29c-9.44,4.64-18.87,9.29-28.31,13.93v1.35c1.8-.45,3.63-.82,5.5-1.12ZM315.22,155.83c-1.05.15-2.17.26-3.37.34-1.65.45-3.3.94-4.94,1.46-1.27.15-2.51.34-3.71.56v9.66h.22c0-.15.75-.26,2.25-.34-.08-.07-.11-.22-.11-.45h.67v.45h2.02c13.41-3.15,21.01-8.35,22.81-15.62-1.2.3-2.32.64-3.37,1.01-2.62.3-4.98.83-7.08,1.57-1.87.08-3.67.52-5.39,1.35ZM304.33,72.69c.15-.15.37-.11.67.11-.6.08-.83.04-.67-.11ZM305.67,84.6c-.52.08-.9.04-1.12-.11.6-.07.97-.04,1.12.11ZM304.78,70.1v-.45h.67v.45h-.67ZM306.01,108.53c-.3.22-.67.38-1.12.45l1.12-.45ZM306.12,73.36c-.3-.07-.6-.15-.9-.22,0-.22.13-.34.39-.34s.43-.07.5-.22v.79ZM307.92,63.93h-.9c.22-.45.52-.82.9-1.12v1.12ZM309.49,122.57c.22.08-.15.11-1.12.11-.08.15-.22.08-.45-.22.82,0,1.35.04,1.57.11ZM308.93,63.36c.37-.22.75-.37,1.12-.45l-1.12.45ZM309.72,64.04c0-.3.07-.49.22-.56.37.38.45.64.22.79,0-.15-.15-.22-.45-.22ZM313.09,91.67c1.35-.22,2.7-.56,4.04-1.01,1.57-.3,3.11-.56,4.61-.79,2.47-.6,4.94-1.27,7.42-2.02.82-.15,1.61-.3,2.36-.45v-7.64c-6.44,3.15-12.85,6.29-19.21,9.44,0,.83.04,1.69.11,2.58.22,0,.45-.04.67-.11ZM312.53,133.92l2.13.11c-.67.08-1.39.04-2.13-.11ZM321.97,116.17l1.24.34c-.45,0-.86-.11-1.24-.34l.22.34c-.97-.3-1.84-.26-2.58.11l.11-.22-4.61,3.93c-.67.6-1.35,1.16-2.02,1.69l17.53-3.03c.6,0,.9-.26.9-.79v-2.81c-3,.08-5.99.11-8.99.11l.34.22c-.08.22-.26.38-.56.45h-.34ZM313.09,123.36c.37-.6.67-.6.9,0h-.9ZM313.43,135.71h.9c.15.53,0,.86-.45,1.01-.38-.15-.52-.49-.45-1.01ZM321.97,113.92c-1.95.38-4.23.75-6.85,1.12,1.95.3,3.93.3,5.95,0,.15-.45.45-.82.9-1.12ZM315.34,123.47c.15-.15.37-.11.67.11-.6.08-.83.04-.67-.11ZM316.91,69.54l2.13.11c-.67,0-1.39-.04-2.13-.11ZM317.25,143.02c.6-.07.97,0,1.12.22-.52.08-.9,0-1.12-.22ZM317.81,71.34h.9c.15.53,0,.83-.45.9-.38-.15-.52-.45-.45-.9ZM318.71,108.53h.67c0,.38-.23.6-.67.67v-.67ZM321.63,78.64c.6-.07,1.01-.04,1.24.11-.6.15-1.01.11-1.24-.11ZM330.05,111.9c-2.17.75-4.34,1.31-6.52,1.69-.38.6-.9,1.01-1.57,1.24.07.22.3.38.67.45l-.11.23,8.99-.23v-3.37c-.52-.07-1.01-.07-1.46,0ZM323.87,137.62h-1.01v-1.12c.9.15,1.24.52,1.01,1.12ZM325.11,116.62c.75,0,1.24.04,1.46.11.22.08-.11.11-1.01.11-.15.22-.3.15-.45-.22ZM326.57,102.69l-.79.56c-.15.22-.34.41-.56.56l.56-.56c.15-.22.41-.41.79-.56ZM327.36,111.34c.3-.15.67-.3,1.12-.45.97-.22,1.98-.37,3.03-.45v-3.6l-6.18,4.61.45-.11c.37.3.9.3,1.57,0ZM328.26,73.14h-.9v-1.12c.82.15,1.12.52.9,1.12ZM328.71,101.22c-.3.15-.6.34-.9.56v-.79c.37,0,.67.08.9.22ZM330.28,117.63c.3-.67.6-.67.9,0h-.9Z"/>
  <path class="cls-1" d="M353.53,48.31h-.22v-9.33c.07-.52.37-.79.9-.79h19.77c.52.08.79.34.79.79v13.71c-.6.22-1.2.49-1.8.79-.22.38-.56.62-1.01.73s-.79.36-1.01.73c-.52,0-.97.08-1.35.22-.75.97-2.02,1.54-3.82,1.69-.3.75-.92,1.25-1.85,1.52-.94.26-1.67.69-2.19,1.29-.97.15-1.76.47-2.36.96-.6.49-1.39.81-2.36.96-3.75,2.32-7.79,4.38-12.13,6.18-.3.15-.56.34-.79.56v-7.75c.07-.45.37-.67.9-.67h8.31v-11.57h.22ZM344.1,69.77c10.26-5.17,20.48-10.37,30.67-15.62v5.73h10.79c.6.08.9.3.9.67v1.01c-3.97,1.05-7.94,2.02-11.91,2.92-2.02.6-4.04,1.2-6.07,1.8-1.65.22-3.3.52-4.94.9-2.47.67-4.94,1.35-7.41,2.02-1.5.22-3,.49-4.49.79-1.42.45-2.77.83-4.04,1.12-1.2.15-2.36.38-3.48.67v-2.02ZM366.45,67.75c2.7-.97,5.58-1.76,8.65-2.36,3.07-.6,5.95-1.38,8.65-2.36.9-.15,1.8-.3,2.7-.45v11.23c0,.53-.3.75-.9.67h-10.79v13.82c-.45.22-.9.38-1.35.45-.52.08-1.05.08-1.57,0-1.65.45-3.3.97-4.94,1.57-1.35.15-2.7.34-4.04.56-.45.15-.83.34-1.12.56-.6.22-1.12.22-1.57,0l-.45.11,7.75-6.07c-2.92,1.72-5.5,3.75-7.75,6.07l-.22-.34c-.38.15-.6.41-.67.79-1.8.15-3.63.53-5.5,1.12v-18.65h-8.31c-.6,0-.9-.22-.9-.67v-.9c.52-.07,1.08-.19,1.69-.34,1.57-.45,3.22-.94,4.94-1.46,1.12-.07,2.25-.19,3.37-.34,1.65-.82,3.44-1.27,5.39-1.35,2.02-.82,4.34-1.39,6.97-1.69ZM356.34,94.03c-.45.3-.75.67-.9,1.12-.6.08-1.31.15-2.13.22v-.79c1.2-.3,2.21-.49,3.03-.56ZM356.79,96.28c.22-.07.37-.19.45-.34l-.34-.22c5.99-.15,11.95-.3,17.86-.45v45.84c0,1.95,1.35,3.3,4.04,4.04,1.72,0,4.34-1.12,7.86-3.37h.45v11.01l-3.71,2.25c-2.7,1.65-5.39,3.3-8.09,4.94l8.09-4.94c1.2-.75,2.43-1.5,3.71-2.25v6.29c-4.34,4.12-8.28,6.74-11.8,7.86-2.77-.45-5.5-.94-8.2-1.46,1.27-.9,2.62-1.65,4.04-2.25,1.05-.9,2.1-1.65,3.15-2.25.75,0,1.2-.26,1.35-.79l-.34-.22-.11-.34c-.6.15-1.11.39-1.52.73-.41.34-1.11.47-2.08.39.37.52,0,1.01-1.12,1.46-.38.38-.75.71-1.12,1.01h-.9c-1.27.9-2.4,1.57-3.37,2.02-1.05-.22-2.1-.34-3.15-.34-2.92-2.32-5.36-6.22-7.3-11.68-.9-1.87-1.35-4.57-1.35-8.09v-47.86l.9-.67-.11.22c.75-.37,1.57-.41,2.47-.11l-.11-.34c.3.22.67.34,1.12.34l-1.12-.34.34-.11ZM353.31,96.51h.56l.34.11c-.3.15-.6.34-.9.56v-.67ZM354.77,129.99v-.45h-.67v.45h.67ZM357.24,57.75c-.22-.22-.6-.26-1.12-.11.15.15.52.19,1.12.11ZM374.77,89.88v5.28l-17.86.56.11-.34c-.38,0-.6-.15-.67-.45.75-.23,1.27-.64,1.57-1.24,2.25-.37,4.42-.94,6.52-1.69.9-.07,1.8-.15,2.7-.22,1.2-.37,2.4-.75,3.59-1.12.75-.07,1.5-.15,2.25-.22.6-.15,1.2-.34,1.8-.56ZM359.94,97.07c.97,0,1.33-.04,1.07-.11-.26-.07-.77-.11-1.52-.11.15.3.3.38.45.22ZM361.74,50.78v1.12h.9c.3-.6,0-.97-.9-1.12ZM365.56,97.85c-.22-.75-.52-.75-.9,0h.9ZM365.56,166.61c1.27.08,2.92.34,4.94.79.52,0,1.01.04,1.46.11h-2.81c-1.5,0-2.88-.26-4.16-.79.15-.07.34-.11.56-.11ZM367.58,97.97c-.3-.22-.54-.26-.73-.11-.19.15.06.19.73.11ZM370.27,83.14c.37-.07.6-.34.67-.79h-.67v.79ZM384.2,71.34c-.75-.45-1.12-.22-1.12.67.52-.07.9-.3,1.12-.67ZM384.43,70.55v.34h.45v-.34h-.45ZM386.11,69.32c-.15.08-.34.22-.56.45l.56-.45Z"/>
  <path class="cls-1" d="M415.66,67.75c1.65-.82,3.44-1.27,5.39-1.35,1.05-.37,2.17-.71,3.37-1.01v8.2c-3,.9-4.49,2.74-4.49,5.5v6.97c0,.97.11,1.95.34,2.92-2.25.38-4.61.86-7.08,1.46-1.57.22-3.15.41-4.72.56-1.5.67-2.85.83-4.04.45l-.11.22-2.58-.34c.82.3,1.68.41,2.58.34l-.11.34c-1.2.08-2.4.15-3.6.23v-16.07c0-1.95.34-3.78,1.01-5.5.6-.15,1.24-.3,1.91-.45,1.27-.22,2.55-.41,3.82-.56,1.57-.52,3.22-1.05,4.94-1.57,1.12-.07,2.25-.19,3.37-.34ZM418.36,93.25c.22,0,.37-.11.45-.34l-.34-.22h3.15c.22.38.49.79.79,1.24-.3-.07-.75-.11-1.35-.11.15.38.3.45.45.22h1.01c.52.83,1.16,1.61,1.91,2.36v21.91c-.6-.22-1.24-.45-1.91-.67-14.01-6.37-21.01-12.47-21.01-18.31-.3,0-.53-.43-.67-1.29-.15-.86-.22-2.19-.22-3.99,1.87-.3,3.74-.56,5.62-.79,3.15-.07,6.22,0,9.21.22l.34.11c-1.72,1.2-3.3,2.55-4.72,4.04l-2.25,2.02c.82-.67,1.57-1.35,2.25-2.02l4.72-4.04-.11.22c.75-.37,1.57-.41,2.47-.11l-.11-.34c.3.22.67.34,1.12.34l-1.12-.34.34-.11ZM413.64,160.21c-1.42.15-2.7-.04-3.82-.56-1.2-.15-2.36-.3-3.48-.45-1.2-1.27-2.36-2.66-3.48-4.16-1.5-2.25-2.25-4.57-2.25-6.97v-16.51c0-.52.3-.79.9-.79h17.53c.6,0,.9.26.9.79v13.14c0,2.85,1.5,4.72,4.49,5.62v11.57c-1.05,0-2.1-.07-3.15-.22-2.62-.45-5.17-.94-7.64-1.46ZM400.94,85.83c.37,0,.75-.11,1.12-.34l-1.12.34ZM402.07,69.54c.22-.45.49-.9.79-1.35,7.19-3.59,14.38-7.23,21.57-10.9v7.08c-2.25.67-4.49,1.31-6.74,1.91-1.5.22-3,.45-4.49.67-1.42.45-2.77.83-4.04,1.12-2.4.45-4.76.94-7.08,1.46ZM404.43,65.95c3.44-3.89,9.21-6.96,17.3-9.21l1.57-.11c-.97.15-1.76.47-2.36.96-.6.49-1.39.81-2.36.96-3.75,2.32-7.79,4.38-12.13,6.18-.6.52-1.27.94-2.02,1.24ZM404.99,103.02l1.12-1.01c-.45.3-.83.64-1.12,1.01ZM406.23,80.1c.45,0,.6-.22.45-.67h-.67c0,.3.07.52.22.67ZM424.43,163.8c-.6.15-.97.45-1.12.9h.34l-3.59,2.13c-4.49-.97-8.58-3.07-12.25-6.29,5.62.75,11.16,1.61,16.63,2.58v.67ZM417.01,92.12c-1.95.3-3.9.3-5.84,0,2.55-.37,4.79-.75,6.74-1.12-.45.3-.75.67-.9,1.12ZM413.42,159.65c-.6-.07-1.24-.07-1.91,0h1.91ZM420.72,90.55c.22.67.52,1.35.9,2.02l-3.15.11.11-.34c-.38,0-.6-.11-.67-.34.75-.3,1.27-.75,1.57-1.35.37,0,.79-.04,1.24-.11ZM424.43,167.4c-1.5-.07-2.92-.26-4.27-.56,1.2-.67,2.36-1.38,3.48-2.13l.34.22c.15,0,.3-.04.45-.11v2.58ZM432.96,62.46v-6.07c4.04.22,7.79,1.27,11.23,3.15-2.7.67-5.39,1.35-8.09,2.02-1.05.22-2.1.52-3.15.9ZM432.96,73.59v-10.34c4.27-.82,8.31-1.87,12.13-3.15,3.52,2.02,6.67,4.94,9.44,8.76,1.5,2.17,2.25,4.49,2.25,6.96v3.48c-1.8.6-3.75,1.12-5.84,1.57-1.42.9-3.3,1.46-5.62,1.69-1.72.9-3.75,1.46-6.07,1.68-.6.15-1.2.38-1.8.67v-5.84c0-2.77-1.5-4.61-4.49-5.5ZM456.78,147.74c0,7.42-4.76,13.11-14.27,17.08-3.22-.45-6.4-.97-9.55-1.57v-3.26c.97-.75,1.95-1.42,2.92-2.02.75.08,1.2-.19,1.35-.79l-.34-.22-.11-.34c-.6.15-1.12.39-1.57.73-.45.34-1.12.47-2.02.39.3.45.22.79-.22,1.01v-8.43c2.99-.9,4.49-2.77,4.49-5.62v-11.68c0-3.74-1.5-6.96-4.49-9.66v-21.01c1.42.75,2.92,1.42,4.49,2.02,12.88,7.04,19.32,15.62,19.32,25.73v14.72l-11.8,7.3c-2.7,1.57-5.39,3.18-8.09,4.83l8.09-4.83c3.97-2.4,7.9-4.79,11.8-7.19v2.81ZM440.94,165.38c-1.65.67-3.37,1.27-5.17,1.8l-2.81.23v-2.92c2.62.23,5.28.53,7.98.9ZM438.36,89.43c-.6-.07-.9-.34-.9-.79v-2.25c.6-.22,1.2-.41,1.8-.56.52-.07,1.05-.07,1.57,0,1.42-.52,2.92-1.05,4.49-1.57,1.42-.22,2.77-.52,4.04-.9.45-.22.9-.41,1.35-.56,1.95-.67,3.89-1.31,5.84-1.91h.22v7.75c-.08.53-.38.79-.9.79h-17.53ZM438.92,74.04l-.67.56c.22-.15.45-.34.67-.56l.67-.67c-.3.22-.52.45-.67.67ZM440.83,71.68v.79c.3-.22.6-.41.9-.56-.15-.22-.45-.3-.9-.22ZM445.66,122.79l-2.47.34c.82.23,1.65.11,2.47-.34ZM445.77,68.31c-.75-.37-1.12-.11-1.12.79.52-.15.9-.41,1.12-.79ZM446,67.52v.45h.45v-.45h-.45ZM447.68,66.29l-.56.56.56-.56Z"/>
  <path class="cls-1" d="M547.11,136.28c-.08.52.6.97,2.02,1.35,1.72.45,2.73.79,3.03,1.01-.3,3.15-.6,8.02-.9,14.61-.3,6.52-.6,11.39-.9,14.61h-24.04c.15-3.82.75-8.69,1.8-14.61,1.72,0,4.04-.15,6.97-.45,3.07-.22,5.39-.34,6.97-.34h.45l-.11-.22c1.87-.3,2.77-.37,2.7-.22h-2.7l-.45-.11.11.34c-1.8,0-4.12.11-6.97.34-3.22.22-5.54.38-6.97.45,0-1.12.15-2.62.45-4.49.22-2.02.37-3.52.45-4.49.97-.23,1.46-.3,1.46-.23-.15-.15-.45-.19-.9-.11-.38.08-.56.04-.56-.11.15-.07.22-.56.22-1.46.15.08,1.83.08,5.06,0,.3.08.6.3.9.67.3.38.6.6.9.67.9-.15,1.76-.07,2.58.22.82.38,1.57.56,2.25.56l.34.34.56-.11c0,.22.3.45.9.67.6.15.97.11,1.12-.11-1.35-.37-2.13-.67-2.36-.9l-.56.11c.22.38-1.99-.45-6.63-2.47-.45-.22-.94-.6-1.46-1.12-.6-.45-1.09-.79-1.46-1.01-.08-.22-.38-.26-.9-.11-.52.22-.83.19-.9-.11.3-1.87.71-4.98,1.24-9.33.3.22,1.16.75,2.58,1.57,1.05.67,1.87,1.24,2.47,1.68l-.45.34.11.34c-.08,0-.19.15-.34.45l-.45.22.22.34c-.38,0-.6.08-.67.22.82.3,1.24.3,1.24,0l.45-.22-.11-.34c.15-.07.3-.07.45,0,.15.08.3.11.45.11l-.22.34.45-.11c-.08.3.22.45.9.45h.34v-.22c.67.53.97.67.9.45l-.45.22.11.34h-.34v.67h.67c0-.07.04-.15.11-.22.07-.07.11-.15.11-.22l.45.11.45-.11c.22.08.34.38.34.9l-.11.22.11.11c-.08,0-.19.15-.34.45l-.45.11.22.34c-.67-.07-.97.08-.9.45l-.45.22.11.34h-2.13c-.83,0-1.01-.19-.56-.56.37,0-.11.41-1.46,1.24,2.77-.45,4.31-.75,4.61-.9l-.11-.34c.9,0,1.5-.15,1.8-.45l-.22-.22-.11-.22c.07,0,.19-.15.34-.45l.45.11-.23-.22c.67-.07,1.2.15,1.57.67.3.53.79.79,1.46.79,1.5,1.05,2.4,1.57,2.7,1.57-.15-.52-.97-1.35-2.47-2.47l-3.48-2.02c-.15-.23-.08-.37.22-.45.37-.07.49-.22.34-.45-1.12-.15-3.52-1.38-7.19-3.71-2.17-1.42-3.26-2.47-3.26-3.15.22-.97.75-1.2,1.57-.67,0-.15-.26-.22-.79-.22-.53.08-.79.04-.79-.11.15-.3.26-.86.34-1.69,0-.75.11-1.24.34-1.46h1.12l-.11.22.45.11c.22.22.52.3.9.22.37,0,.37-.11,0-.34l.45-.11-.22-.34c1.27,0,2.47-.22,3.59-.67l-.11.34.45.11c0,.15.34.22,1.01.22s1.01-.07,1.01-.22h-.56l.11-.34-.45-.11c.37-.07,1.05-.15,2.02-.23.97-.07,1.61-.19,1.91-.34.67.53,2.13.71,4.38.56,2.32-.23,3.93-.15,4.83.22l-.11.34.34-.11v2.47h-1.46l.22-.34h-.45c-.97.22-1.5.26-1.57.11l-.45.11.23.34h-3.93l.22-.34-.45.11c-.67-.07-.97.08-.9.45l-.56-.11-.34.34c-2.25-.22-3.33-.3-3.26-.22l.11-.34-.45.11h-.34l-.11.22.11.22c.07.08.19.19.34.34.15.08.26.15.34.22,2.1-.3,3.18-.49,3.26-.56l.56.11.34-.34c.07,0,.15.04.22.11.15.08.26.11.34.11l-.11.34.45-.11c.9.22,2.13.22,3.71,0,1.8-.22,3.11-.3,3.93-.22-.15,1.05-.26,2.92-.34,5.62-.08,2.47-.22,4.16-.45,5.06-1.5-.37-2.32-.6-2.47-.67l.45-.22-.11-.45c.3.08.49.04.56-.11-.6-.15-1.84-.45-3.71-.9-1.57-.45-2.7-.64-3.37-.56.3.08.94.22,1.91.45.9.15,1.53.34,1.91.56l-.11.34.11.23ZM530.82,141.56c.3-.15.6-.22.9-.22-.38.52-1.2.67-2.47.45v-.67c.3.08.56.08.79,0,.3-.15.56-.22.79-.22v.67ZM554.3,81.45c.15.15.52.3,1.12.45.67.15,1.2.34,1.57.56-.23.15-.34.71-.34,1.68.07.83-.22,1.24-.9,1.24.6.45.75,1.31.45,2.58-.38,1.27-.52,1.95-.45,2.02,3,.67,4.38.94,4.16.79l-.11.45.45.22c.37-.45.67-.37.9.22-.22,0-.34-.07-.34-.22l.45-.22-.11-.45c1.87.3,3.82.75,5.84,1.35.37-.37.15-.63-.67-.79-1.2-.3-1.84-.49-1.91-.56l.45-.22-.23-.34h5.73c0,.52.04,1.42.11,2.7.15,1.05.19,2.02.11,2.92-2.25.9-5.47,2.32-9.66,4.27-4.27,2.02-7.49,3.45-9.66,4.27.97.08,2.66-.49,5.06-1.68,6.97-3.37,11.83-5.58,14.61-6.63-.08.9-.04,1.99.11,3.26.15,1.57.22,2.62.22,3.15-1.35.15-3.48.34-6.4.56-2.7.3-4.83.49-6.4.56,1.57.15,3.67.08,6.29-.22,3.59-.37,5.77-.6,6.52-.67.15,3.52.22,5.43.22,5.73h-17.53c-2.32,1.8-2.92,2.77-1.8,2.92.07.08.49.11,1.24.11-.08,4.57-.3,7.94-.67,10.11-.38,0-.86-.04-1.46-.11-.52-.15-1.01-.19-1.46-.11l.11-.34-.45-.11c.15-.15-.04-.22-.56-.22s-.71.08-.56.22l-.45.11.11.34c-3.15-.22-4.64-.3-4.49-.22-.22.08-.26.22-.11.45.22.3.26.56.11.79-.6.08-1.09,0-1.46-.22l.22-.34-.45-.11v-.34c-.08,0-.34-.04-.79-.11-.45-.07-.82-.11-1.12-.11-.9,0-1.39.26-1.46.79h.9l-.11.34.45.11c-.15.22-1.24.38-3.26.45l.11-.56-.67.11v-.22l.45-.22-.23-.34c-.15-.07-.22-.07-.22,0l-.45.22.11.34c-.52.08-1.31,0-2.36-.22h-1.24c.22-1.05.41-3,.56-5.84.15-2.47.37-4.34.67-5.62.15-.75.45-1.16.9-1.24-.45-.37-.6-.86-.45-1.46.07-.67.41-1.08,1.01-1.24l.45.11.11-.34c.22,0,.34.08.34.22h.56c-.6-.15-.97-.26-1.12-.34l-.34-.11c-.53,0-.83-.07-.9-.22,1.95-14.3,3.26-24.79,3.93-31.46-.22.15.26.15,1.46,0,.07-.3-.11-.52-.56-.67-.45-.07-.67-.22-.67-.45.15-1.2.49-3.71,1.01-7.53.37-2.99.63-5.54.79-7.64.9-.22,2.4-.37,4.49-.45l-.22.34.45.34v.11c2.4-1.27,7.56-1.61,15.5-1.01.07,1.35-.22,2.17-.9,2.47h-.45l-.11.22c-.67.53-.97.67-.9.45h1.46l.11.34.45-.11c-.15,1.5-.23,2.17-.23,2.02-.45.22-1.35.41-2.7.56-1.2.15-1.99.41-2.36.79.37.38,1.08.41,2.13.11,1.35-.37,2.21-.56,2.58-.56-.15,2.4-.49,5.39-1.01,8.99-.53,4.27-.86,7.19-1.01,8.76-.3,0-.64-.04-1.01-.11-.38-.15-.75-.19-1.12-.11l.11-.34-.45.11c-1.2-1.2-2.77-1.76-4.72-1.68.67.08,1.35.41,2.02,1.01.75.52,1.46.83,2.13.9l-.11.34.45-.11ZM534.3,137.62c.45.45.86.64,1.24.56v-.45l.45.11-.11-.22v-.22l.45.11.11-.34c-.67-.3-.56-.52.34-.67,0,.15-.11.22-.34.22v.22l-.34-.11-.22.11c-.08,0-.82-.11-2.25-.34-.9-.15-1.46-.04-1.69.34.07.22.52.3,1.35.22.82-.07,1.27,0,1.35.22h-.34v.22ZM532.84,143.8c.97-.22,1.46-.3,1.46-.22-.97.3-1.46.38-1.46.22ZM536.44,101c-.08.52.22.75.9.67,0,.08-.3-.15-.9-.67ZM537.33,125.04c.97-.22,1.46-.3,1.46-.22-.97.3-1.46.38-1.46.22ZM538.8,128.86c.75.22,1.16.22,1.24,0-.83-.3-1.24-.3-1.24,0ZM540.26,157.17h.34c-.45.45-.75.38-.9-.22.15,0,.26.08.34.22l-.45.22.11.45h-.34l-.11.22c-.08.08-.11.15-.11.22.6.08.9-.07.9-.45l.45-.22-.22-.45ZM539.36,84.15h.67v-.45h-.67v.45ZM563.4,30.22c-.08.08-.15.11-.22.11,0,.15-.11,1.54-.34,4.16-.08,1.42-.34,2.25-.79,2.47.23.22.3,1.01.23,2.36.07-.6-.71,5.09-2.36,17.08-7.12.15-10.49.22-10.11.22-.08-.22,0-.37.22-.45.22-.15.34-.3.34-.45-1.35.15-2.51.56-3.48,1.24-2.1,0-4.38.15-6.85.45,0-.9,0-1.31,0-1.24.07-.37.45-.52,1.12-.45,0-.07-.38-.15-1.12-.22.45-3.15,1.01-7.34,1.69-12.58.75-6.59,1.27-10.79,1.57-12.58,2.25-.22,5.62-.6,10.11-1.12,4.34-.52,7.71-.86,10.11-1.01v1.68c-.22.08-.83.23-1.8.45-.67.15-1.16.34-1.46.56.45.22,1.42-.04,2.92-.79.15,0,.22.04.22.11ZM541.15,105.38h-.56c0,.15-.04.22-.11.22-.08.15-.15.22-.22.22.67,0,.97-.15.9-.45ZM541.94,59.77c.22-.3.19-.45-.11-.45-.08.08-.19.19-.34.34-.15.08-.26.15-.34.22.3.15.56.11.79-.11ZM541.83,139.65c-.22.3,0,.45.67.45.75,0,1.01-.15.79-.45h-1.46ZM542.5,123.92c-.53,0-.75.11-.67.34.82.08,1.2.15,1.12.22.22-.3.07-.49-.45-.56ZM542.05,55.95c.97-.23,1.46-.3,1.46-.23-.97.3-1.46.38-1.46.23ZM543.51,105.04c-.83-.07-1.2.11-1.12.56.82.08,1.2-.11,1.12-.56ZM543.29,119.2h-.56c0,.08-.08.15-.22.22-.08.08-.11.15-.11.22.67-.07.97-.22.9-.45ZM564.41,6.29c-.08.75.04,2.44.34,5.06.22,2.1.19,3.75-.11,4.94-.22.08-.56.04-1.01-.11-.38-.15-.64-.11-.79.11,1.2.15,1.91.3,2.13.45-.6,5.62-1.09,9.21-1.46,10.79-9.74.52-14.19.82-13.37.9-.38,0-.45.15-.22.45.22.15.07.19-.45.11-3.97.38-6.03.53-6.18.45.07.22.26-.04.56-.79.07-.22.11-1.12.11-2.7.07-1.8.15-3.07.22-3.82.15-1.27.52-3.86,1.12-7.75.3-.07.67-.04,1.12.11.37.15.6.11.67-.11l.45.11.45.11c.67.08,1.01.04,1.01-.11s-.34-.19-1.01-.11l-.34-.22-.56.11c0-.22-.3-.3-.9-.22-.6.08-.9,0-.9-.22.07-.97.22-2.25.45-3.82.22-1.87.37-3.11.45-3.71h18.2ZM544.75,28.65c.97-.3,1.46-.37,1.46-.22-.97.22-1.46.3-1.46.22ZM553.62,73.25c-.22-.07-.71-.07-1.46,0-.75.15-1.42.11-2.02-.11-.3.3-.71.56-1.24.79l-.34-.34-.56.11-.11.34.45.34c-1.27,1.05-2.47,1.8-3.59,2.25,1.05-.23,2.51-.75,4.38-1.57,1.87-.75,3.37-1.27,4.49-1.57l.22.34.45.11c.75,0,1.12-.07,1.12-.22-.3-.15-.6-.22-.9-.22l-.34-.34-.56.11ZM545.65,152.01c1.87-.3,2.77-.37,2.7-.22-1.87.3-2.77.38-2.7.22ZM547.11,70.55h.67v-.34h-.67v.34ZM549.81,147.62c.3,0,.45-.04.45-.11.07-.07-.08-.11-.45-.11-.38-.3-.97-.52-1.8-.67.07.22.07.3,0,.22.82.15,1.42.38,1.8.67ZM548.57,34.49c1.35-.15,3.33-.79,5.96-1.91-1.95.45-3.93,1.09-5.96,1.91ZM549.47,124.59c.3,0,.41-.04.34-.11-.6,0-1.01.11-1.24.34.15,0,.56.08,1.24.22.45.08.56,0,.34-.22-.45-.07-.67-.15-.67-.22ZM550.7,81.11c-.22-.07-.41-.11-.56-.11-.22.3-.08.45.45.45.52.08.75,0,.67-.22-.15,0-.34-.04-.56-.11ZM554.52,15.28c0-.45-.6-.71-1.8-.79-1.27-.07-1.95.04-2.02.34.9.3,2.17.45,3.82.45ZM551.15,120.1c-.15-.07-.3-.07-.45,0,.45-.52.75-.49.9.11-.15,0-.3-.04-.45-.11ZM551.94,88.53c-.45-.07-.67,0-.67.22h.56c.3.08.41.15.34.22.37-.22.3-.37-.22-.45ZM553.4,71c-.97.38-1.27.22-.9-.45.37,0,.56.15.56.45l-.45-.11.11.34v.45h.67v-.45l.45-.11-.45-.11ZM554.75,53.7c-.08-.07-.34-.04-.79.11-1.2.45-1.68.83-1.46,1.12-.22.22.26,0,1.46-.67.6-.3.86-.49.79-.56ZM552.5,60.33c0,.3.19.53.56.67,0-.3-.19-.52-.56-.67ZM554.52,12.36h-.9c-.3,0-.38.15-.22.45.67,0,1.05-.15,1.12-.45ZM554.86,35.5c-.22.38.04.6.79.67.75.08,1.08-.07,1.01-.45,0,.15-.6.08-1.8-.22ZM556.66,32.02c-.45-.07-.75.04-.9.34.45,0,.75-.11.9-.34ZM556.1,103.92c.97-.22,1.46-.26,1.46-.11-.97.22-1.46.26-1.46.11ZM583.73,6.29c.3,1.42.6,3.52.9,6.29.3,3,.6,5.13.9,6.4-4.72-.52-10.08-1.2-16.07-2.02,0-1.42-.08-3.22-.22-5.39-.22-2.62-.38-4.38-.45-5.28h14.94ZM585.76,22.13c.22,1.2.34,2.17.34,2.92.37,0-4.87.56-15.73,1.68-.45-5.17-.67-8.35-.67-9.55,1.72.22,7,.9,15.84,2.02,0,.67.07,1.65.22,2.92ZM586.54,27.86c.15.97.19,1.72.11,2.25-.6,0-1.65-.07-3.15-.23-1.35-.07-2.47-.07-3.37,0,1.57.3,3.75.45,6.52.45.52,3,1.08,7.12,1.69,12.36.75,6.14,1.27,10.3,1.57,12.47-2.02.3-4.87.45-8.54.45-4.27.08-7.27.19-8.99.34,0-1.57-.19-4.08-.56-7.53-.38-3.44-.56-5.96-.56-7.53-.08-1.12.11-1.72.56-1.8-.67-1.05-1.05-2.96-1.12-5.73-.15-3.52-.26-5.5-.34-5.96,8.84-1.05,14.16-1.61,15.95-1.68-.08.52,0,1.24.22,2.13ZM574.75,87.86c-.22-.45-.34-1.31-.34-2.58.07-1.27,0-2.13-.22-2.58,1.8,0,4.46.11,7.98.34,3.44.22,6.14.34,8.09.34-1.72-.22-4.38-.41-7.98-.56-3.75-.15-6.44-.34-8.09-.56-.38-6.97-.79-12.4-1.24-16.29.67-.22,1.57-.56,2.7-1.01,1.2-.45,2.1-.79,2.7-1.01-.53-.07-1.35.15-2.47.67-1.27.6-2.25.94-2.92,1.01.07-.82.04-2.02-.11-3.59-.15-1.42-.19-2.62-.11-3.6h1.12c-1.27-.15-1.76-.75-1.46-1.8,1.57-.22,4.57-.3,8.99-.22,4.04.08,6.89-.07,8.54-.45.45,1.57.56,2.85.34,3.82-.08.15.11.67.56,1.57-.15.15-1.84.3-5.06.45.45.22,1.35.3,2.7.22,1.42-.07,2.21-.07,2.36,0,.22,2.55.67,6.29,1.35,11.23.67,5.02,1.12,8.8,1.35,11.35.15.52-.15.71-.9.56,0-.07.41.22,1.24.9.07,1.05.26,2.88.56,5.5.37,2.25.56,4.08.56,5.5l-.56-.11-.34.34c-9.81-2.25-16.14-3.56-18.99-3.93.07-.15-.04-.86-.34-2.13-.15-.82.15-1.16.9-1.01-.75-.22-1.05-.86-.9-1.91l.56.11.34-.34c.82-.07,1.24-.19,1.24-.34,0-.07-.41-.04-1.24.11l-.45-.11-.45.11ZM575.08,39.66c-.53-.22-.94-.22-1.24,0,2.1-.07,3,0,2.7.22-.3.08-.79,0-1.46-.22ZM594.63,97.41l.34-.34c.3.08.41.45.34,1.12,0,.6-.19.71-.56.34-.22.08-.15.26.22.56.45.3.67.53.67.67.07,1.8.3,4.27.67,7.42.6,4.34.94,6.89,1.01,7.64-1.72-.15-5.21-.45-10.45-.9-4.42-.3-7.86-.64-10.34-1.01.07-1.35-.04-3.11-.34-5.28-.38-2.4-.56-4.16-.56-5.28.45,0,1.05-.07,1.8-.22.67-.07,1.27-.07,1.8,0l.45.11-.11-.34c.6.08,1.39.04,2.36-.11.97-.15,1.76-.19,2.36-.11l.45.11-.11-.34c1.12.08,1.69.04,1.69-.11s-.56-.19-1.69-.11l-.45-.11.11.34c-.6,0-1.39.04-2.36.11-.97.15-1.76.19-2.36.11l-.45-.11.11.34c-.6-.07-1.24-.07-1.91,0-.82.15-1.39.22-1.68.22,0-.52-.11-1.91-.34-4.16-.08-1.72-.15-3.15-.22-4.27.67.15,2.25.45,4.72.9,2.1.38,3.78.71,5.06,1.01,5.92,1.27,8.99,1.91,9.21,1.91-.15,0-.15-.07,0-.23l.56.11ZM597.1,115.04c.45.83.64,2.02.56,3.6-5.17.15-12.02.56-20.56,1.24.07.08,0-2.1-.22-6.52,8.54.83,15.28,1.39,20.22,1.68ZM577.1,29.88c1.05-.3,1.57-.37,1.57-.22-.97.3-1.5.38-1.57.22ZM577.1,124.82v-4.72c2.1-.07,5.65-.3,10.67-.67,4.49-.3,7.9-.45,10.22-.45,0,1.65.19,3.26.56,4.83-9.96.97-17.12,1.31-21.46,1.01ZM577.44,68.31h.56v-.45h-.56v.45ZM580.48,167.85c-.45-3.67-.67-6.74-.67-9.21,5.02,2.02,8.99,3.37,11.91,4.04-7.19-2.7-11.23-4.23-12.13-4.61.07-.9,0-2.1-.22-3.59-.15-1.5-.19-2.66-.11-3.48,7.56-.3,13.41-.6,17.53-.9,1.87-.15,2.88-.3,3.03-.45-14.23.45-21.08.67-20.56.67-.22-1.05-.41-3.48-.56-7.3l.45.11.11-.34c1.65-.37,2.36-.37,2.13,0-.38.08-.75.04-1.12-.11-.38-.07-.71-.11-1.01-.11l-.11-.34-.45.11c-.6-5.84-1.01-11.46-1.24-16.85,2.92-.07,8.46-.37,16.63-.9l-.11.45.45.22c-.6.38-.49.71.34,1.01.45-.3.45-.64,0-1.01l.45-.22-.22-.45c.45-.15,1.65-.19,3.6-.11.52,4.42,1.42,11.65,2.7,21.68,1.2,9.36,2.1,16.59,2.7,21.68h-23.48ZM578.9,87.52c.97-.3,1.5-.37,1.57-.22-.97.22-1.5.3-1.57.22ZM580.7,62.24c-.22.45,0,.64.67.56.67-.07.94-.26.79-.56h-1.46ZM584.86,37.19h.67v-.45h-.67v.45ZM585.19,65.16h.56v-.45h-.56v.45ZM588.68,144.14c-.15-.07-.34-.11-.56-.11.45-.45.75-.37.9.22-.08,0-.19-.04-.34-.11ZM593.85,131.11h1.12v-.45h-1.12v.45Z"/>
  <path class="cls-1" d="M618.45,67.41c-.15.15-.23.34-.23.56-.45.22-.9.41-1.35.56v-8.88c.07-.45.37-.67.9-.67h18.31c-.38.15-.86.26-1.46.34-3.75,2.32-7.79,4.34-12.13,6.07-1.05.9-2.4,1.57-4.04,2.02ZM616.88,69.77c6.81-3.22,13.56-6.52,20.22-9.89v4.38h.45c.15-.15.34-.3.56-.45v1.91c-1.42.45-2.88.83-4.38,1.12-1.42.22-2.92.49-4.49.79-1.35.45-2.7.83-4.04,1.12-2.77.53-5.54,1.05-8.31,1.57v-.56ZM637.1,88.42c-.3.15-.53.38-.67.67-2.25.3-4.65.79-7.19,1.46-1.5.15-3.07.34-4.72.56-1.42.67-2.77.79-4.04.34l-.11.34-2.47-.34c.75.22,1.57.34,2.47.34l-.11.22c-1.12.15-2.25.26-3.37.34v-20.9c.9-.23,1.8-.45,2.7-.67,1.27-.22,2.54-.41,3.82-.56,1.65-.52,3.29-1.01,4.94-1.46,1.12-.15,2.25-.3,3.37-.45,1.72-.75,3.52-1.16,5.39-1.24.37-.07.71-.19,1.01-.34v15.84c-.52,1.72-.86,3.67-1.01,5.84ZM629.68,158.75c-1.35.15-2.62-.04-3.82-.56-3-.37-5.99-.79-8.99-1.24v-62.92c1.8-.3,3.59-.52,5.39-.67,3.22-.15,6.29-.11,9.21.11l.34.11c-1.72,1.2-3.26,2.51-4.61,3.93l-2.36,2.02c.82-.6,1.61-1.27,2.36-2.02l4.61-3.93-.11.34c.75-.45,1.57-.52,2.47-.22l-.11-.22c.37.22.75.3,1.12.22l-1.12-.22.34-.11c.22-.07.37-.19.45-.34l-.34-.22c.82-.07,1.68-.11,2.58-.11v67.52c-2.55-.52-5.02-1.01-7.42-1.46ZM637.1,164.7l-2.36,1.35c.75-.45,1.53-.86,2.36-1.24v1.24c0,.45-.3.67-.9.67h-2.58l-.34-.11c-.22.08-.49.11-.79.11h-14.72c-.6,0-.9-.22-.9-.67v-8.2c1.27.22,2.32.52,3.15.9,5.99.53,11.68,1.27,17.08,2.25v3.71ZM616.99,86.06c.45,0,.82-.11,1.12-.34l-1.12.34ZM621.03,102.8l1.12-.9c-.38.22-.75.53-1.12.9ZM622.27,80.44c.45.08.6-.15.45-.67h-.67c0,.3.07.52.22.67ZM633.05,92.24c-1.95.3-3.9.3-5.84,0,2.62-.37,4.87-.75,6.74-1.12-.38.3-.67.67-.9,1.12ZM629.46,158.18c-.6-.07-1.2-.07-1.8,0h1.8ZM631.71,125.83v.34h.67v-.34h-.67ZM637.1,90.55v2.13l-2.58.11.11-.34c-.38,0-.6-.15-.67-.45.75-.22,1.27-.63,1.57-1.24.52,0,1.05-.07,1.57-.22ZM654.85,57.86h2.58c2.62.22,5.02.67,7.19,1.35-4.12,1.12-8.28,2.17-12.47,3.15-1.8.45-3.6.94-5.39,1.46v-4.27c2.92-1.12,5.62-1.69,8.09-1.69ZM669.79,61.79c4.64,3.15,7.19,8.24,7.64,15.28v1.01c-1.35.45-2.77.75-4.27.9.15.15.22.34.22.56-1.2.22-2.25.52-3.15.9-.9.38-1.95.64-3.15.79-1.5.9-3.37,1.46-5.62,1.69-.97.52-2.1.9-3.37,1.12.15-4.64-1.01-7.68-3.48-9.1.15-.15.26-.3.34-.45l.79-.56c-.38.15-.64.34-.79.56l-.45.45c-1.12-.67-2.55-1.01-4.27-1.01-1.27.08-2.43.26-3.48.56v-9.89c5.09-1.12,10-2.4,14.72-3.82,1.72-.22,3.33-.52,4.83-.9,1.27.53,2.43,1.16,3.48,1.91l-3.26,2.81c1.05-.97,2.13-1.91,3.26-2.81ZM656.98,72.91c.3-.15.6-.34.9-.56-.22-.15-.53-.19-.9-.11v.67ZM676.76,79.88c.22,0,.45-.04.67-.11v11.8l-19.32.56v-6.4c1.05-.52,2.17-.94,3.37-1.24,1.35-.23,2.7-.52,4.04-.9.37-.15.82-.34,1.35-.56,1.95-.6,3.89-1.2,5.84-1.8,1.35-.37,2.7-.82,4.04-1.35ZM658.11,152.46v-60.22c6.44-.15,12.88-.34,19.32-.56v48.76c-1.12.67-2.17,1.39-3.15,2.13l.34.11-13.59,8.09c-.97.6-1.95,1.16-2.92,1.69ZM658.11,152.57l2.92-1.8c4.57-2.62,9.1-5.32,13.59-8.09l.34.22h.9c.37-.45.9-.9,1.57-1.35v24.27c-.52-.15-1.05-.26-1.57-.34h-1.35c-5.24-.75-10.71-1.53-16.4-2.36v-10.56ZM659.01,166.72c-.6,0-.9-.22-.9-.67v-2.02h.45c5.32,1.05,10.41,1.91,15.28,2.58.67-.07,1.35-.04,2.02.11h-16.85ZM659.34,122.46c.82.22,1.65.11,2.47-.34l-2.47.34ZM660.8,69.66c.52-.15.9-.41,1.12-.79-.82-.37-1.2-.11-1.12.79ZM662.6,68.53v-.34h-.45v.34h.45ZM663.27,67.41l.56-.45c-.22.08-.41.22-.56.45ZM674.28,83.02c0-.3-.19-.45-.56-.45s-.56.15-.56.45h1.12ZM676.31,73.14c-.38-.3-.56-.32-.56-.06s.19.28.56.06Z"/>
  <path class="cls-1" d="M839.42,39.66v-4.61c.07-.07.37-.11.9-.11h19.1c.6,0,.9.04.9.11v1.35c-3.37,2.1-6.85,4.12-10.45,6.07-.15.45-.47.75-.96.9-.49.15-.84.45-1.07.9-.52,0-.97.08-1.35.22-.75,1.12-2.02,1.8-3.82,2.02-.22.75-.67,1.27-1.35,1.57-.67.3-1.31.6-1.91.9v-8.31h.11c.22-.45.19-.79-.11-1.01ZM839.42,52.69v-1.8c6.89-4.27,13.86-8.5,20.9-12.7v14.49c0,.08-.3.11-.9.11h-19.1c-.6,0-.9-.04-.9-.11ZM844.36,79.65c-1.27.15-2.62.34-4.04.56-.08,0-.19.04-.34.11v-1.57l4.94-3.82c-1.72,1.05-3.37,2.17-4.94,3.37v-17.41c.07-.45.37-.67.9-.67h19.1c.6,0,.9.22.9.67-.3.23-.38.53-.22.9h.22v13.48c-1.65.67-3.52,1.12-5.62,1.35-1.42.52-2.88,1.05-4.38,1.57h-1.57c-1.65.38-3.3.86-4.94,1.46ZM856.83,78.19c1.27-.45,2.62-.94,4.04-1.46v7.53l-20.9.56v-3.03c.67-.23,1.31-.41,1.91-.56.9,0,1.8-.04,2.7-.11,1.2-.37,2.4-.75,3.59-1.12.75-.07,1.5-.15,2.25-.22,1.65-.52,3.26-1.05,4.83-1.57.45-.07.97-.07,1.57,0ZM851.78,148.86c.75.08,1.2-.15,1.35-.67l-.22-.34-.22-.22c-.6.15-1.11.39-1.52.73-.41.34-1.11.43-2.08.28.37.6,0,1.12-1.12,1.57-.38.3-.75.6-1.12.9h-.9c-1.27.9-2.4,1.57-3.37,2.02-.83-.22-1.69-.34-2.58-.34v-67.97c6.97-.15,13.93-.34,20.9-.56v30.22l-1.69.22c.52.22,1.08.22,1.69,0v28.42c-2.7,1.57-5.36,3.15-7.98,4.72l7.98-4.72v12.81c-5.47-.75-10.9-1.65-16.29-2.7,1.35-.82,2.7-1.53,4.04-2.13,1.05-.9,2.1-1.65,3.15-2.25ZM840.99,154.03c-.22.3-.56.53-1.01.67v-.79c.37,0,.71.04,1.01.11ZM855.26,165.26c-1.65.45-3.18,1.01-4.61,1.68-2.55.38-4.91.97-7.08,1.8h-2.7c-.6,0-.9-.26-.9-.79v-12.25c1.05-.45,2.06-.9,3.03-1.35,1.35.15,3,.41,4.94.79,3.44.3,6.93.71,10.45,1.24.75.15,1.57.3,2.47.45v6.97c-1.72.6-3.52,1.01-5.39,1.24l.11.34-1.01-.45c.3.15.63.3,1.01.45l-.34-.11ZM843.02,86.96c-.22-.67-.52-.67-.9,0h.9ZM845.04,87.18c-.3-.23-.53-.26-.67-.11-.15.15.07.19.67.11ZM847.73,71.9v.67c.45-.07.67-.3.67-.67h-.67ZM860.88,167.96c0,.52-.3.79-.9.79h-11.57c.3-.15.6-.26.9-.34,1.05-.15,2.1-.34,3.15-.56,1.65-.52,3.48-1.08,5.5-1.69.9-.3,1.87-.6,2.92-.9v2.7ZM854.81,66.62l-.56.56c.23-.15.41-.34.56-.56l.79-.67c-.38.22-.64.45-.79.67ZM856.83,64.38v.67c.3-.15.6-.34.9-.56-.22-.15-.53-.19-.9-.11Z"/>
  <path class="cls-1" d="M880.09,148.52c-.22.38-.52.45-.9.22.37-.37.67-.45.9-.22ZM880.82,147.57c.11.11-.06.24-.51.39.22-.37.39-.51.51-.39ZM881.66,146.95c.82-.75,1.68-1.5,2.58-2.25l-2.58,2.25ZM883.69,77.74c-.3,1.65-.45,3.37-.45,5.17v19.21c1.95-.3,3.6-.79,4.94-1.46h1.35c2.4-1.42,5.02-2.7,7.86-3.82,0-.22.07-.41.22-.56,1.65-.45,3-1.12,4.04-2.02.45-.15.86-.34,1.24-.56v-33.03l-.34.11c-10.79,3-17.08,8.65-18.87,16.96l6.85-4.83c-2.25,1.65-4.53,3.26-6.85,4.83ZM902.9,119.99v-21.01h-.34c-1.27.15-2.55.34-3.82.56-1.5.45-3.15.83-4.94,1.12-2.02.38-3.86,1.01-5.5,1.91-1.65.9-3.26,1.76-4.83,2.58-.08,0-.15.04-.22.11v14.72c.22-.07.37-.21.45-.39.07-.19.3-.24.67-.17-.08.45-.45.67-1.12.67v1.24c5.47,0,10.86-.22,16.18-.67l.11-.23c-.9,0-1.72-.11-2.47-.34l2.47.34.11-.34c1.05.45,2.13.41,3.26-.11ZM883.24,103.81c.67-.37,1.35-.71,2.02-1.01-.67-.07-1.35,0-2.02.22v.79ZM883.24,125.15v19.44c0,5.39,1.16,9.51,3.48,12.36,4.49,5.02,9.89,8.31,16.18,9.89v-44.94h-1.46c-6.14.83-12.21,1.91-18.2,3.26ZM883.24,123.47c2.4-.37,4.79-.75,7.19-1.12-2.4-.22-4.79-.3-7.19-.22v1.35ZM884.14,118.64v-.34h.45v.34h-.45ZM886.27,143.02c-.67.6-1.35,1.16-2.02,1.69l2.02-1.69ZM889.19,117.63c-.9.45-1.84.83-2.81,1.12l2.81-1.12ZM887.9,114.71c.19-.15.43-.11.73.11-.67.08-.92.04-.73-.11ZM887.84,141.67l2.25-2.02c-.67.75-1.42,1.42-2.25,2.02ZM890.65,111.45c-.52.22-.9.15-1.12-.22.52-.22.9-.15,1.12.22ZM891.1,69.32c-.08-.37.07-.54.45-.51.37.04.52.21.45.51h-.9ZM891.89,116.62c-.3.08-.56.15-.79.22l.79-.22ZM894.36,70.33l-.34-.22c.67-.6,1.5-1.05,2.47-1.35-.08.3-.15.56-.23.79l-.34.22.45-.11c-.15.08-.3.11-.45.11l.11.34c-.67.08-1.27.26-1.8.56l.11-.34-1.12.67c-.3.3-.64.53-1.01.67l1.01-.67c.3-.3.67-.52,1.12-.67ZM893.12,137.29c.07-.15.19-.26.34-.34l-.34.34ZM894.7,71.68c-.45.22-.75.19-.9-.11.37-.23.67-.19.9.11ZM893.8,115.83c.3-.15.6-.22.9-.22l-.9.22ZM893.8,119.71c0-.19.3-.17.9.06-.6.15-.9.13-.9-.06ZM902.9,95.27c-2.77,1.42-5.58,2.81-8.43,4.16,2.92-.37,5.73-.94,8.43-1.68v-2.47ZM895.54,78.53c.19-.15.43-.11.73.11-.67.08-.92.04-.73-.11ZM896.04,75.95v-.45h.67v.45h-.67ZM897.28,114.37c-.3.22-.67.34-1.12.34l1.12-.34ZM897.39,79.21c-.3-.07-.6-.15-.9-.23-.08-.22.04-.34.34-.34s.49-.07.56-.22v.79ZM900.54,65.83l.11-.11c-1.05.75-2.06,1.46-3.03,2.13l2.92-2.02ZM898.29,69.66c.22-.45.52-.79.9-1.01v1.01h-.9ZM900.2,69.21c.37-.22.75-.37,1.12-.45l-1.12.45ZM900.2,131.33c.37-.37.75-.67,1.12-.9l-1.12.9ZM900.99,69.88c0-.3.07-.49.22-.56.37.38.45.64.22.79,0-.15-.15-.22-.45-.22ZM901.21,108.53h.67c.15.45,0,.67-.45.67-.15-.15-.22-.37-.22-.67ZM902.78,85.05h-1.12c0-.37.15-.64.45-.79.22.23.45.49.67.79ZM906.38,126.17c-.75.67-1.54,1.31-2.36,1.91l2.36-1.91ZM906.38,126.17c1.35-1.42,2.88-2.73,4.61-3.93l-4.61,3.93ZM908.63,67.86c-.67.22-1.12.19-1.35-.11.67-.15,1.12-.11,1.35.11ZM910.31,75.38c-.67.08-1.39.08-2.13,0h2.13ZM909.08,77.18h.9c.15.52,0,.83-.45.9-.38-.15-.53-.45-.45-.9ZM913.35,63.7l-.34.22h.45-.45l.11.34c-.67.08-1.2.22-1.57.45v.9c.07.08.15.15.22.22-.08,0-.15.04-.22.11v9.66h.45c3,0,5.17,1.09,6.52,3.26v-1.01c.75.15,1.08.45,1.01.9.22.08.34.22.34.45h-1.12c0-.07.04-.15.11-.23h-.22c.15.23.26.45.34.67.67,1.42,1.2,4.12,1.57,8.09,3.74-1.57,7.23-3.33,10.45-5.28.97-.15,1.74-.47,2.3-.96.56-.49,1.37-.77,2.42-.84.45-.6,1.14-1.03,2.08-1.29.94-.26,1.55-.73,1.85-1.4l-.22-2.58c-3.37-6.37-8.05-10.79-14.04-13.26-.45.22-.79.15-1.01-.22h.45c-2.17-.9-4.57-1.53-7.19-1.91-.97.67-1.95,1.35-2.92,2.02l2.92-2.02c-1.87-.22-3.82-.34-5.84-.34h-.22v4.38c.52-.52,1.2-.9,2.02-1.12,0,.3-.08.56-.22.79ZM911.55,64.94h.45c.15.15.23.34.23.56h-.67v-.56ZM924.58,91.67c-1.27.38-2.55.79-3.82,1.24.15,2.4.22,5.13.22,8.2v4.38l-9.44,1.8v2.47h.22-.22v4.04c.07,0,.15.04.22.11-.08.08-.15.11-.22.11v1.12c1.65-.07,3.29-.19,4.94-.34l.11-.22c-.83,0-1.65-.11-2.47-.34l2.47.34.11-.34c1.27.45,2.62.34,4.04-.34,1.65-.22,3.22-.41,4.72-.56,2.54-.67,4.98-1.16,7.3-1.46.07-.3.3-.52.67-.67l.22.22c1.8-1.8,3.86-3.41,6.18-4.83v-18.09c-2.4.3-4.53.83-6.4,1.57-1.95.08-3.78.49-5.5,1.24-1.05.15-2.17.26-3.37.34ZM927.73,116.28c-2.92-.22-5.99-.26-9.21-.11-2.32.22-4.64.56-6.97,1.01v6.52l9.77-1.69,2.13-1.69c1.35-1.42,2.88-2.73,4.61-3.93l-.34-.11ZM911.55,154.48c1.05-.37,1.98-.9,2.81-1.57,4.42-1.8,8.46-3.82,12.13-6.07.97-.15,1.76-.45,2.36-.9.6-.45,1.38-.75,2.36-.9.52-.6,1.25-1.01,2.19-1.24.94-.22,1.59-.71,1.97-1.46,1.72-.15,2.99-.71,3.82-1.69.22,0,.45-.04.67-.11v-6.4c0-.37-.3-.6-.9-.67h-17.64c-.45,0-.71.23-.79.67v11.46c0,3.37-2.21,5.28-6.63,5.73h-2.36v3.15ZM917.05,156.16c1.35-.3,2.7-.67,4.04-1.12,1.57-.22,3.07-.45,4.49-.67,2.54-.67,5.06-1.35,7.53-2.02,1.65-.37,3.29-.67,4.94-.9.52-.15,1.01-.3,1.46-.45.22-.82.34-1.72.34-2.7v-6.29c-9.44,4.64-18.87,9.29-28.31,13.93v1.35c1.8-.45,3.63-.82,5.5-1.12ZM923.57,155.83c-1.05.15-2.17.26-3.37.34-1.65.45-3.3.94-4.94,1.46-1.27.15-2.51.34-3.71.56v9.66h.22c0-.15.75-.26,2.25-.34-.08-.07-.11-.22-.11-.45h.67v.45h2.02c13.41-3.15,21.01-8.35,22.81-15.62-1.2.3-2.32.64-3.37,1.01-2.62.3-4.98.83-7.08,1.57-1.87.08-3.67.52-5.39,1.35ZM912.67,72.69c.15-.15.37-.11.67.11-.6.08-.83.04-.67-.11ZM914.02,84.6c-.52.08-.9.04-1.12-.11.6-.07.97-.04,1.12.11ZM913.12,70.1v-.45h.67v.45h-.67ZM914.36,108.53c-.3.22-.67.38-1.12.45l1.12-.45ZM914.47,73.36c-.3-.07-.6-.15-.9-.22,0-.22.13-.34.39-.34s.43-.07.5-.22v.79ZM916.27,63.93h-.9c.22-.45.52-.82.9-1.12v1.12ZM917.84,122.57c.22.08-.15.11-1.12.11-.08.15-.22.08-.45-.22.82,0,1.35.04,1.57.11ZM917.28,63.36c.37-.22.75-.37,1.12-.45l-1.12.45ZM918.06,64.04c0-.3.07-.49.22-.56.37.38.45.64.22.79,0-.15-.15-.22-.45-.22ZM921.43,91.67c1.35-.22,2.7-.56,4.04-1.01,1.57-.3,3.11-.56,4.61-.79,2.47-.6,4.94-1.27,7.42-2.02.82-.15,1.61-.3,2.36-.45v-7.64c-6.44,3.15-12.85,6.29-19.21,9.44,0,.83.04,1.69.11,2.58.22,0,.45-.04.67-.11ZM920.87,133.92l2.13.11c-.67.08-1.39.04-2.13-.11ZM930.31,116.17l1.24.34c-.45,0-.86-.11-1.24-.34l.22.34c-.97-.3-1.84-.26-2.58.11l.11-.22-4.61,3.93c-.67.6-1.35,1.16-2.02,1.69l17.53-3.03c.6,0,.9-.26.9-.79v-2.81c-3,.08-5.99.11-8.99.11l.34.22c-.08.22-.26.38-.56.45h-.34ZM921.43,123.36c.37-.6.67-.6.9,0h-.9ZM921.77,135.71h.9c.15.53,0,.86-.45,1.01-.38-.15-.52-.49-.45-1.01ZM930.31,113.92c-1.95.38-4.23.75-6.85,1.12,1.95.3,3.93.3,5.95,0,.15-.45.45-.82.9-1.12ZM923.68,123.47c.15-.15.37-.11.67.11-.6.08-.83.04-.67-.11ZM925.25,69.54l2.13.11c-.67,0-1.39-.04-2.13-.11ZM925.59,143.02c.6-.07.97,0,1.12.22-.52.08-.9,0-1.12-.22ZM926.15,71.34h.9c.15.53,0,.83-.45.9-.38-.15-.52-.45-.45-.9ZM927.05,108.53h.67c0,.38-.23.6-.67.67v-.67ZM929.97,78.64c.6-.07,1.01-.04,1.24.11-.6.15-1.01.11-1.24-.11ZM938.4,111.9c-2.17.75-4.34,1.31-6.52,1.69-.38.6-.9,1.01-1.57,1.24.07.22.3.38.67.45l-.11.23,8.99-.23v-3.37c-.52-.07-1.01-.07-1.46,0ZM932.22,137.62h-1.01v-1.12c.9.15,1.24.52,1.01,1.12ZM933.46,116.62c.75,0,1.24.04,1.46.11.22.08-.11.11-1.01.11-.15.22-.3.15-.45-.22ZM934.92,102.69l-.79.56c-.15.22-.34.41-.56.56l.56-.56c.15-.22.41-.41.79-.56ZM935.7,111.34c.3-.15.67-.3,1.12-.45.97-.22,1.98-.37,3.03-.45v-3.6l-6.18,4.61.45-.11c.37.3.9.3,1.57,0ZM936.6,73.14h-.9v-1.12c.82.15,1.12.52.9,1.12ZM937.05,101.22c-.3.15-.6.34-.9.56v-.79c.37,0,.67.08.9.22ZM938.62,117.63c.3-.67.6-.67.9,0h-.9Z"/>
  <path class="cls-1" d="M961.88,48.31h-.22v-9.33c.07-.52.37-.79.9-.79h19.77c.52.08.79.34.79.79v13.71c-.6.22-1.2.49-1.8.79-.22.38-.56.62-1.01.73s-.79.36-1.01.73c-.52,0-.97.08-1.35.22-.75.97-2.02,1.54-3.82,1.69-.3.75-.92,1.25-1.85,1.52-.94.26-1.67.69-2.19,1.29-.97.15-1.76.47-2.36.96-.6.49-1.39.81-2.36.96-3.75,2.32-7.79,4.38-12.13,6.18-.3.15-.56.34-.79.56v-7.75c.07-.45.37-.67.9-.67h8.31v-11.57h.22ZM952.44,69.77c10.26-5.17,20.48-10.37,30.67-15.62v5.73h10.79c.6.08.9.3.9.67v1.01c-3.97,1.05-7.94,2.02-11.91,2.92-2.02.6-4.04,1.2-6.07,1.8-1.65.22-3.3.52-4.94.9-2.47.67-4.94,1.35-7.41,2.02-1.5.22-3,.49-4.49.79-1.42.45-2.77.83-4.04,1.12-1.2.15-2.36.38-3.48.67v-2.02ZM974.8,67.75c2.7-.97,5.58-1.76,8.65-2.36,3.07-.6,5.95-1.38,8.65-2.36.9-.15,1.8-.3,2.7-.45v11.23c0,.53-.3.75-.9.67h-10.79v13.82c-.45.22-.9.38-1.35.45-.52.08-1.05.08-1.57,0-1.65.45-3.3.97-4.94,1.57-1.35.15-2.7.34-4.04.56-.45.15-.83.34-1.12.56-.6.22-1.12.22-1.57,0l-.45.11,7.75-6.07c-2.92,1.72-5.5,3.75-7.75,6.07l-.22-.34c-.38.15-.6.41-.67.79-1.8.15-3.63.53-5.5,1.12v-18.65h-8.31c-.6,0-.9-.22-.9-.67v-.9c.52-.07,1.08-.19,1.69-.34,1.57-.45,3.22-.94,4.94-1.46,1.12-.07,2.25-.19,3.37-.34,1.65-.82,3.44-1.27,5.39-1.35,2.02-.82,4.34-1.39,6.97-1.69ZM964.69,94.03c-.45.3-.75.67-.9,1.12-.6.08-1.31.15-2.13.22v-.79c1.2-.3,2.21-.49,3.03-.56ZM965.14,96.28c.22-.07.37-.19.45-.34l-.34-.22c5.99-.15,11.95-.3,17.86-.45v45.84c0,1.95,1.35,3.3,4.04,4.04,1.72,0,4.34-1.12,7.86-3.37h.45v11.01l-3.71,2.25c-2.7,1.65-5.39,3.3-8.09,4.94l8.09-4.94c1.2-.75,2.43-1.5,3.71-2.25v6.29c-4.34,4.12-8.28,6.74-11.8,7.86-2.77-.45-5.5-.94-8.2-1.46,1.27-.9,2.62-1.65,4.04-2.25,1.05-.9,2.1-1.65,3.15-2.25.75,0,1.2-.26,1.35-.79l-.34-.22-.11-.34c-.6.15-1.11.39-1.52.73-.41.34-1.11.47-2.08.39.37.52,0,1.01-1.12,1.46-.38.38-.75.71-1.12,1.01h-.9c-1.27.9-2.4,1.57-3.37,2.02-1.05-.22-2.1-.34-3.15-.34-2.92-2.32-5.36-6.22-7.3-11.68-.9-1.87-1.35-4.57-1.35-8.09v-47.86l.9-.67-.11.22c.75-.37,1.57-.41,2.47-.11l-.11-.34c.3.22.67.34,1.12.34l-1.12-.34.34-.11ZM961.65,96.51h.56l.34.11c-.3.15-.6.34-.9.56v-.67ZM963.11,129.99v-.45h-.67v.45h.67ZM965.59,57.75c-.22-.22-.6-.26-1.12-.11.15.15.52.19,1.12.11ZM983.11,89.88v5.28l-17.86.56.11-.34c-.38,0-.6-.15-.67-.45.75-.23,1.27-.64,1.57-1.24,2.25-.37,4.42-.94,6.52-1.69.9-.07,1.8-.15,2.7-.22,1.2-.37,2.4-.75,3.59-1.12.75-.07,1.5-.15,2.25-.22.6-.15,1.2-.34,1.8-.56ZM968.28,97.07c.97,0,1.33-.04,1.07-.11-.26-.07-.77-.11-1.52-.11.15.3.3.38.45.22ZM970.08,50.78v1.12h.9c.3-.6,0-.97-.9-1.12ZM973.9,97.85c-.22-.75-.52-.75-.9,0h.9ZM973.9,166.61c1.27.08,2.92.34,4.94.79.52,0,1.01.04,1.46.11h-2.81c-1.5,0-2.88-.26-4.16-.79.15-.07.34-.11.56-.11ZM975.92,97.97c-.3-.22-.54-.26-.73-.11-.19.15.06.19.73.11ZM978.62,83.14c.37-.07.6-.34.67-.79h-.67v.79ZM992.55,71.34c-.75-.45-1.12-.22-1.12.67.52-.07.9-.3,1.12-.67ZM992.77,70.55v.34h.45v-.34h-.45ZM994.46,69.32c-.15.08-.34.22-.56.45l.56-.45Z"/>
  <path class="cls-1" d="M1005.25,75.5c-.38-1.72-.75-3.52-1.12-5.39-.6-2.54-1.05-4.53-1.35-5.95-.3-1.42-.45-2.32-.45-2.7l.9-.34h17.08c.3,0,.65.66,1.07,1.97.41,1.31.94,3.3,1.57,5.95.64,2.66,1.33,5.94,2.08,9.83h-.11l-1.12-.45c-1.5.15-3.07-.02-4.72-.5-1.65-.49-3.22-.73-4.72-.73l.11.34-9.21-2.02ZM1008.28,194.02c-1.65-.15-3.3-.22-4.94-.22-.3-.08-.64-.15-1.01-.22v-14.83c.22-.08.49-.11.79-.11,4.72,4.72,8.5,7.11,11.35,7.19.52.37,1.05.71,1.57,1.01,4.19,3.15,8.24,6.03,12.13,8.65.9.23,1.57.67,2.02,1.35-1.8-.15-3.56-.41-5.28-.79h-2.81c-1.87-.3-3.71-.6-5.5-.9-2.47-.08-5.13-.45-7.98-1.12v.22l-.34-.22ZM1013.9,201.78l.22.34-7.08-2.25c-1.57-.6-3.15-1.12-4.72-1.57v-3.37c.67.22,1.38.41,2.13.56,1.72.15,3.63.34,5.73.56,3.15.15,6.48.63,10,1.46,2.7,0,5.65.3,8.88.9,1.42.07,2.77.26,4.04.56-2.25,3.07-4.57,5.28-6.97,6.63-2.02-.75-4.01-1.54-5.95-2.36-.38.3-.83.34-1.35.11-1.65-.67-3.3-1.2-4.94-1.57ZM1013.78,202.34c3.59,1.5,7.26,2.81,11.01,3.93-1.57.75-3.22,1.12-4.94,1.12h-1.24c-5.54,0-10.97-3-16.29-8.99v-.11l4.72,1.57c2.32.82,4.68,1.57,7.08,2.25l-.34.22ZM1006.37,80.33c-.38-1.57-.71-3.15-1.01-4.72,2.99.67,6.03,1.31,9.1,1.91l-.22.34c.97.45,1.98.69,3.03.73,1.05.04,1.95.28,2.7.73-3.89.15-7.86.45-11.91.9-.6,0-1.16.04-1.69.11ZM1022.66,102.12l-.23.22c-4.12-1.42-8.2-3.03-12.25-4.83-.22-.75-.41-1.53-.56-2.36.07,0,.11-.04.11-.11-.08-.07-.15-.15-.23-.22-.9-4.27-1.87-8.76-2.92-13.48,3-.22,5.92-.49,8.76-.79.52.15,1.05.26,1.57.34,2.7-.37,5.47-.6,8.31-.67.37,1.95.79,4.04,1.24,6.29.97,4.04,1.83,7.72,2.58,11.01l-1.24,5.95c-.38-.15-.75-.26-1.12-.34-1.65.08-2.92-.34-3.82-1.24l-.22.22-2.02-1.35c.52.6,1.2,1.05,2.02,1.35ZM1008.62,194.25l-.67-.79c.15.3.37.56.67.79ZM1010.41,94.37c0-.07.04-.19.11-.34-.08-.07-.19-.15-.34-.22-.08.15-.15.26-.22.34.15.08.3.15.45.22ZM1013.45,100.33c-.97-.3-1.91-.56-2.81-.79-.08-.3-.15-.6-.22-.9,1.05.52,2.06,1.09,3.03,1.69ZM1010.98,101.22c4.27.83,8.46,1.87,12.58,3.15,1.2.45,2.43,1.01,3.71,1.69l-.79,3.93c-.3.15-.64.3-1.01.45l-3.15.9c1.05-.22,2.1-.52,3.15-.9l1.01-.34-6.52,33.03c-2.1-10.11-5.09-24.08-8.99-41.91ZM1011.99,95.16c.97.15,1.98.19,3.03.11l-3.03-.11ZM1016.14,92.35c-.15-.37-.34-.52-.56-.45-.22.08-.04.22.56.45ZM1032.88,196.94c-.67-.45-1.42-1.01-2.25-1.69-.45-.22-.86-.41-1.24-.56-4.42-2.92-8.99-5.99-13.71-9.21,2.32-1.72,4.23-4.98,5.73-9.77l4.27-.56c5.62-.67,11.16-1.42,16.63-2.25l.22.34c.07,0,.15.04.22.11-1.57,7.49-2.62,12.02-3.15,13.59-1.72,4.04-3.52,7.49-5.39,10.34-.52-.08-.97-.19-1.35-.34ZM1018.05,95.27h-.9.9ZM1017.15,112.91l1.46-.34c-.53.08-1.01.19-1.46.34ZM1018.73,99.54c-.38-.45-.62-.58-.73-.39-.11.19.13.32.73.39ZM1018.95,89.2c0,.45.3.64.9.56,0-.37-.3-.56-.9-.56ZM1021.09,95.38h-.9.9ZM1042.1,172.57l.22.34-16.63,2.25c-1.42.22-2.85.41-4.27.56.97-2.77,1.65-5.02,2.02-6.74,3.52-15.13,7.71-35.01,12.58-59.66,5.92,2.47,11.83,4.98,17.75,7.53-4.79,25.32-8.43,43.85-10.9,55.61-.22,0-.49.04-.79.11ZM1024.12,95.38l-1.24-.11c.37.15.79.19,1.24.11ZM1055.02,110.55c-.38,2.1-.79,4.16-1.24,6.18l-17.75-7.42c.15-.6.26-1.24.34-1.91.15-.07.26-.11.34-.11,2.25.53,4.49.86,6.74,1.01.82.3,1.68.6,2.58.9,1.27.15,2.54.3,3.82.45.67.22,1.35.45,2.02.67,1.05.15,2.1.22,3.15.22ZM1036.7,111.22c.82.45,1.16.58,1.01.39-.15-.19-.6-.43-1.35-.73,0,.38.11.49.34.34ZM1051.42,85.16c2.25.08,4.64.49,7.19,1.24h1.01c-1.57,8.09-3.03,15.66-4.38,22.69-.67,0-1.35-.04-2.02-.11l-1.35-.67c-1.72-.22-3.48-.41-5.28-.56-1.27-.37-2.58-.75-3.93-1.12-.45,0-.86.04-1.24.11-.75,0-1.24-.22-1.46-.67l-.45-.11,10.22-2.47c-3.52.45-6.93,1.27-10.22,2.47v-.34c-.38,0-.71.15-1.01.45-.53-.22-1.09-.41-1.69-.56,1.65-8.24,3.15-15.73,4.49-22.47.45,0,.9.04,1.35.11,1.12.38,2.21.71,3.26,1.01,1.95,0,3.78.34,5.51,1.01ZM1039.4,181.22v.34c0,.45.11.67.34.67v-1.01h-.34ZM1040.07,147.29c.6.52,1.39.75,2.36.67l-2.36-.67ZM1041.31,114.26c.22-.37.19-.6-.11-.67-.3-.07-.53,0-.67.22.22.15.49.3.79.45ZM1041.42,82.24c.22-1.12.41-2.17.56-3.15,6.44-.45,12.84-.86,19.21-1.24-.45,2.55-.94,5.09-1.46,7.64-1.05-.3-2.21-.56-3.48-.79-2.55-.37-5.13-.75-7.75-1.12-1.42-.37-2.88-.75-4.38-1.12-.9-.07-1.8-.15-2.7-.22ZM1042.32,77.63c.9-4.64,1.67-8.43,2.3-11.35.64-2.92,1.03-4.64,1.18-5.17h17.53c.6.08.9.34.9.79-.97,5.02-1.91,9.89-2.81,14.6-.97-.15-1.84-.04-2.58.34-.97-.22-1.85-.24-2.64-.06-.79.19-1.67.17-2.64-.06-3.67.6-7.41.9-11.23.9ZM1042.99,115.27c-.15-.37-.34-.52-.56-.45-.22.08-.04.22.56.45ZM1045.58,69.09c-.08-.3-.11-.6-.11-.9-.38,0-.67.15-.9.45.37.15.71.3,1.01.45ZM1053.55,102.35c.37.08.71-.07,1.01-.45-.22-.07-.45-.15-.67-.22-.15.22-.26.45-.34.67ZM1054.9,72.69c.07.3.37.49.9.56-.08-.22-.38-.41-.9-.56ZM1055.69,64.04c-.38.45-.41.82-.11,1.12.37.08.67-.15.9-.67-.3-.15-.56-.3-.79-.45ZM1057.71,62.91l-1.8-1.01c.52.38,1.12.71,1.8,1.01Z"/>
</svg>