<?xml version="1.0" encoding="UTF-8"?>
<svg id="Layer_1" data-name="Layer 1" xmlns="http://www.w3.org/2000/svg" viewBox="0 0 906.98 893.72">
  <defs>
    <style>
      .cls-1 {
        fill: #b30406;
        stroke-width: 0px;
      }
    </style>
  </defs>
  <path class="cls-1" d="M14.9,795.77c-2.72,4.36-5.37,8.79-7.77,13.44-19.5,37.7,2.94,79.98,44.03,84.25,17.19,1.78,31.69-5.58,45.43-14.6,11.36-7.45,21.86-15.68,31.69-24.52-37.4-20.27-75.17-39.87-113.38-58.57Z"/>
  <path class="cls-1" d="M486.39,13.47c27.1,23.17,52.98,47.6,77.67,73.22,16.05-4.56,32.13-9,48.24-13.34-39.15-25.91-80.35-49.06-122.87-70.38-3.38-1.69-7.6-6.01-10.96.54.19,5.29,4.73,7.24,7.92,9.96Z"/>
  <path class="cls-1" d="M770.58,210.96c-44.47-52.12-95.61-95.38-151.06-132.82-16.8,4.5-33.57,9.1-50.3,13.84,8.37,8.81,16.61,17.75,24.69,26.86,51.05,57.58,96.79,118.54,126.9,189.15,25.4-20.85,51.66-40.58,78.52-59.48-8.73-12.75-18.3-25.29-28.75-37.54ZM641.19,129.81c-4.18,0-4.17-6.49,0-6.49s4.17,6.49,0,6.49Z"/>
  <path class="cls-1" d="M404.8,137.54c-40.96-4.02-80.51-7.9-120.05-11.78-7.86-.77-11.87,5.11-16.46,9.7-33.38,33.34-66.69,66.73-100.06,100.08,77.07-37,156.1-69.24,236.57-98Z"/>
  <path class="cls-1" d="M372.29,279.05c-11.38-11.28-10.29-17.44.52-27.85,34.49-33.23,67.98-67.49,106.83-106.32-20.36-2-40.18-3.94-59.69-5.85-1.29.46-2.6.89-3.89,1.35-45.63,16.28-91.11,33.07-135.82,51.74-42.63,17.8-84.63,37.08-126.1,57.43-24.65,24.61-49.3,49.23-74.09,73.69-9.55,9.43-10.43,14.82-.33,24.46,29.37,28.05,58.22,56.69,86.14,86.17,10.82,11.43,16.97,8.6,26.29-1.15,23.98-25.09,49.23-48.95,73.25-74,9.27-9.67,15.06-12.24,26.15-1.04,52.76,53.3,105.71,106.41,158.76,159.43,14.43-3.2,28.83-6.56,43.17-10.18,28.08-7.09,55.93-15.01,83.6-23.51-68.08-68.31-136.3-136.48-204.79-204.38ZM341.43,221.03c4.18,0,4.17,6.49,0,6.49s-4.17-6.49,0-6.49ZM170.85,393.13c-4.18,0-4.17-6.49,0-6.49s4.17,6.49,0,6.49ZM150.96,341.35c-3.6,2.15-6.85-3.46-3.27-5.6,14.81-8.86,30.1-16.89,45.7-24.26,55.56-26.27,114.37-44.55,172.03-65.49,3.94-1.43,5.62,4.84,1.72,6.25-16.1,5.85-32.28,11.49-48.45,17.15-57.42,20.11-115.29,40.6-167.73,71.95Z"/>
  <path class="cls-1" d="M784.8,691.42c-8.54-8.32-9.66-13.36-1.48-23.07,12.78-15.16,24.56-31.51,34.54-48.65,67.94-116.75,61.67-250.21-14.95-365.84-27.2,19.19-53.78,39.21-79.45,60.35,4.62,11.26,8.86,22.75,12.64,34.53,7.98,24.89,12.75,49.28,14.17,73.16,3.1-1.23,6.21-2.43,9.3-3.68,3.88-1.56,5.55,4.72,1.72,6.25-3.57,1.44-7.16,2.81-10.74,4.24,1.69,52.96-13.67,103.32-49.55,150.72-9.2,12.15-14.61,13.89-26.37,2-30.71-31.01-61.56-61.89-92.36-92.81-41.73,12.89-83.89,24.33-126.49,33.92,41.26,41.22,82.56,82.41,123.95,123.51,11.9,11.82,10.68,16.28-4.98,20.98-94.71,28.44-180.85,14.41-257.1-50.54-11.39-9.7-21.77-27.23-37.19-4.44-1.66,2.45-4.77,1.86-7.94.99-29.87-8.13-55.47,9.71-83.17,14.75-11.35,2.06-21.14,13.42-23.26,25.01-3.87,21.2-18.89,29.85-35.19,38.78-9.68,5.31-18.88,11.6-27.84,18.08-16.45,11.91-32.5,24.26-47.22,37.88,19.63,31.41,45.92,58.78,66.49,89.5,2.33,3.48-3.29,6.72-5.6,3.27-20.36-30.39-45.95-57.45-65.54-88.3-12.09,11.66-23.22,24.23-32.71,38.34,22.9,11.21,45.69,22.62,68.28,34.43,15.57,8.14,31.06,16.43,46.49,24.8,27.77-26.22,50.01-57.38,69.98-90.45,8.9-14.74,16.67-28.72,36.3-31.63,9.31-1.38,17.84-8.68,22.07-17.39,7.26-14.97,13.01-13.49,25.02-3.48,115.7,96.47,242.74,113.52,379.88,51.21,12.88-5.85,20.64-4.81,30.5,5.38,16.27,16.81,32.76,33.39,49.31,49.93,22.14-6.22,44.22-12.67,66.16-19.56,18.88-5.92,37.67-12.11,56.43-18.38-27.82-28.16-55.75-56.2-84.09-83.82ZM793.55,486.01c4.18,0,4.17,6.49,0,6.49s-4.17-6.49,0-6.49ZM119.51,762.44c-4.18,0-4.17-6.49,0-6.49s4.17,6.49,0,6.49Z"/>
  <path class="cls-1" d="M873.96,780.37c-22.97,7.69-45.99,15.23-69.13,22.39.62,1.08.6,2.41-.71,3.44-12.06,9.48-24.12,19.03-35.88,28.92,12.73,12.67,25.46,25.34,38.14,38.05,14.9,14.94,32.15,23.72,53.73,19.37,22.02-4.44,37.05-17.38,43.98-39.09,7.33-22.95.21-42.33-15.87-58.68-4.74-4.82-9.52-9.6-14.27-14.41Z"/>
  <path class="cls-1" d="M751.6,818.5c4.02,4.01,8.02,8.04,12.04,12.05,9.94-8.36,20.11-16.46,30.3-24.5-14.07,4.29-28.19,8.45-42.35,12.45Z"/>
</svg>